<svg width="74" height="98" viewBox="0 0 74 98" fill="none" xmlns="http://www.w3.org/2000/svg">
<path d="M3.2 93V82.35H4.88V93H3.2ZM7.09191 82.05H8.74191V90.735C8.74191 91.135 8.80191 91.39 8.92191 91.5C9.04191 91.61 9.19191 91.665 9.37191 91.665C9.57191 91.665 9.76191 91.645 9.94191 91.605C10.1219 91.565 10.2719 91.515 10.3919 91.455L10.6319 92.76C10.3919 92.86 10.1069 92.945 9.77691 93.015C9.44691 93.085 9.15191 93.12 8.89191 93.12C8.33191 93.12 7.89191 92.965 7.57191 92.655C7.25191 92.335 7.09191 91.895 7.09191 91.335V82.05ZM11.6036 82.05H13.2536V90.735C13.2536 91.135 13.3136 91.39 13.4336 91.5C13.5536 91.61 13.7036 91.665 13.8836 91.665C14.0836 91.665 14.2736 91.645 14.4536 91.605C14.6336 91.565 14.7836 91.515 14.9036 91.455L15.1436 92.76C14.9036 92.86 14.6186 92.945 14.2886 93.015C13.9586 93.085 13.6636 93.12 13.4036 93.12C12.8436 93.12 12.4036 92.965 12.0836 92.655C11.7636 92.335 11.6036 91.895 11.6036 91.335V82.05ZM16.0254 89.955V85.155H17.6754V89.625C17.6754 91.035 18.1754 91.74 19.1754 91.74C19.6454 91.74 20.0904 91.595 20.5104 91.305C20.9304 91.005 21.2554 90.585 21.4854 90.045V85.155H23.1354V91.14C23.1354 91.33 23.1704 91.465 23.2404 91.545C23.3104 91.625 23.4254 91.67 23.5854 91.68V93C23.4154 93.03 23.2754 93.05 23.1654 93.06C23.0554 93.07 22.9504 93.075 22.8504 93.075C22.5504 93.075 22.3004 92.995 22.1004 92.835C21.9004 92.675 21.7854 92.46 21.7554 92.19L21.7254 91.41C21.3754 91.98 20.9204 92.415 20.3604 92.715C19.8004 93.005 19.1854 93.15 18.5154 93.15C17.6954 93.15 17.0754 92.88 16.6554 92.34C16.2354 91.8 16.0254 91.005 16.0254 89.955ZM28.031 93.15C27.371 93.15 26.746 93.04 26.156 92.82C25.566 92.6 25.061 92.28 24.641 91.86L25.256 90.75C25.706 91.15 26.156 91.44 26.606 91.62C27.056 91.8 27.511 91.89 27.971 91.89C28.431 91.89 28.806 91.805 29.096 91.635C29.386 91.455 29.531 91.195 29.531 90.855C29.531 90.615 29.456 90.43 29.306 90.3C29.156 90.17 28.936 90.065 28.646 89.985C28.366 89.905 28.026 89.805 27.626 89.685C27.066 89.515 26.596 89.34 26.216 89.16C25.836 88.97 25.551 88.74 25.361 88.47C25.171 88.2 25.076 87.855 25.076 87.435C25.076 86.675 25.361 86.085 25.931 85.665C26.501 85.235 27.246 85.02 28.166 85.02C28.736 85.02 29.261 85.11 29.741 85.29C30.231 85.46 30.661 85.73 31.031 86.1L30.326 87.195C29.646 86.575 28.896 86.265 28.076 86.265C27.716 86.265 27.381 86.335 27.071 86.475C26.771 86.615 26.621 86.875 26.621 87.255C26.621 87.575 26.756 87.805 27.026 87.945C27.296 88.085 27.696 88.235 28.226 88.395C28.826 88.575 29.341 88.755 29.771 88.935C30.211 89.105 30.546 89.33 30.776 89.61C31.016 89.88 31.136 90.255 31.136 90.735C31.136 91.495 30.851 92.09 30.281 92.52C29.711 92.94 28.961 93.15 28.031 93.15ZM36.9595 92.595C36.7495 92.695 36.4595 92.81 36.0895 92.94C35.7195 93.06 35.3245 93.12 34.9045 93.12C34.3845 93.12 33.9345 92.98 33.5545 92.7C33.1845 92.42 32.9995 91.965 32.9995 91.335V86.43H31.9645V85.155H32.9995V82.575H34.6495V85.155H36.3595V86.43H34.6495V90.81C34.6695 91.09 34.7545 91.295 34.9045 91.425C35.0645 91.545 35.2595 91.605 35.4895 91.605C35.7195 91.605 35.9395 91.565 36.1495 91.485C36.3595 91.405 36.5145 91.34 36.6145 91.29L36.9595 92.595ZM42.5123 86.58C41.8723 86.6 41.3023 86.75 40.8023 87.03C40.3123 87.3 39.9623 87.69 39.7523 88.2V93H38.1023V85.155H39.6323V86.91C39.9023 86.37 40.2573 85.94 40.6973 85.62C41.1373 85.29 41.6023 85.11 42.0923 85.08C42.1823 85.08 42.2623 85.08 42.3323 85.08C42.4023 85.08 42.4623 85.085 42.5123 85.095V86.58ZM43.128 90.705C43.128 90.205 43.268 89.77 43.548 89.4C43.828 89.02 44.218 88.73 44.718 88.53C45.228 88.32 45.813 88.215 46.473 88.215C46.823 88.215 47.178 88.245 47.538 88.305C47.908 88.355 48.233 88.43 48.513 88.53V88.035C48.513 87.485 48.348 87.055 48.018 86.745C47.688 86.435 47.213 86.28 46.593 86.28C46.163 86.28 45.748 86.355 45.348 86.505C44.948 86.655 44.533 86.875 44.103 87.165L43.548 86.055C44.068 85.715 44.588 85.46 45.108 85.29C45.638 85.11 46.193 85.02 46.773 85.02C47.823 85.02 48.648 85.3 49.248 85.86C49.858 86.41 50.163 87.195 50.163 88.215V91.14C50.163 91.33 50.193 91.465 50.253 91.545C50.323 91.625 50.438 91.67 50.598 91.68V93C50.448 93.03 50.313 93.05 50.193 93.06C50.073 93.07 49.973 93.075 49.893 93.075C49.533 93.075 49.263 92.99 49.083 92.82C48.913 92.64 48.813 92.44 48.783 92.22L48.738 91.77C48.398 92.21 47.963 92.55 47.433 92.79C46.903 93.03 46.368 93.15 45.828 93.15C45.308 93.15 44.843 93.045 44.433 92.835C44.023 92.615 43.703 92.32 43.473 91.95C43.243 91.58 43.128 91.165 43.128 90.705ZM48.123 91.185C48.383 90.925 48.513 90.68 48.513 90.45V89.55C47.923 89.33 47.323 89.22 46.713 89.22C46.113 89.22 45.623 89.345 45.243 89.595C44.873 89.835 44.688 90.16 44.688 90.57C44.688 90.91 44.823 91.225 45.093 91.515C45.373 91.795 45.773 91.935 46.293 91.935C46.643 91.935 46.983 91.865 47.313 91.725C47.643 91.585 47.913 91.405 48.123 91.185ZM56.4712 92.595C56.2612 92.695 55.9712 92.81 55.6012 92.94C55.2312 93.06 54.8362 93.12 54.4162 93.12C53.8962 93.12 53.4462 92.98 53.0662 92.7C52.6962 92.42 52.5112 91.965 52.5112 91.335V86.43H51.4762V85.155H52.5112V82.575H54.1612V85.155H55.8712V86.43H54.1612V90.81C54.1812 91.09 54.2662 91.295 54.4162 91.425C54.5762 91.545 54.7712 91.605 55.0012 91.605C55.2312 91.605 55.4512 91.565 55.6612 91.485C55.8712 91.405 56.0262 91.34 56.1262 91.29L56.4712 92.595ZM61.0365 93.15C60.2165 93.15 59.5015 92.965 58.8915 92.595C58.2915 92.215 57.8265 91.72 57.4965 91.11C57.1665 90.49 57.0015 89.815 57.0015 89.085C57.0015 88.355 57.1665 87.685 57.4965 87.075C57.8365 86.455 58.3065 85.96 58.9065 85.59C59.5165 85.21 60.2265 85.02 61.0365 85.02C61.8465 85.02 62.5515 85.21 63.1515 85.59C63.7615 85.96 64.2315 86.455 64.5615 87.075C64.9015 87.685 65.0715 88.355 65.0715 89.085C65.0715 89.815 64.9065 90.49 64.5765 91.11C64.2465 91.72 63.7765 92.215 63.1665 92.595C62.5665 92.965 61.8565 93.15 61.0365 93.15ZM58.6965 89.1C58.6965 89.6 58.8015 90.05 59.0115 90.45C59.2215 90.85 59.5015 91.165 59.8515 91.395C60.2015 91.625 60.5965 91.74 61.0365 91.74C61.4665 91.74 61.8565 91.625 62.2065 91.395C62.5665 91.155 62.8515 90.835 63.0615 90.435C63.2715 90.035 63.3765 89.585 63.3765 89.085C63.3765 88.585 63.2715 88.135 63.0615 87.735C62.8515 87.335 62.5665 87.02 62.2065 86.79C61.8565 86.55 61.4665 86.43 61.0365 86.43C60.6065 86.43 60.2115 86.55 59.8515 86.79C59.5015 87.02 59.2215 87.34 59.0115 87.75C58.8015 88.15 58.6965 88.6 58.6965 89.1ZM70.9449 86.58C70.3049 86.6 69.7349 86.75 69.2349 87.03C68.7449 87.3 68.3949 87.69 68.1849 88.2V93H66.5349V85.155H68.0649V86.91C68.3349 86.37 68.6899 85.94 69.1299 85.62C69.5699 85.29 70.0349 85.11 70.5249 85.08C70.6149 85.08 70.6949 85.08 70.7649 85.08C70.8349 85.08 70.8949 85.085 70.9449 85.095V86.58Z" fill="#1E1E1E"/>
<path d="M0 0V71H74V0H0ZM3.08256 3.03362H70.9151V67.9641H3.08256V3.03362ZM25.6664 40.2063L23.2221 49.2981C23.1736 49.5598 23.0764 49.6053 22.7758 49.6053H18.2479C17.9357 49.6053 17.8872 49.5097 17.9358 49.1661L26.6909 18.9892C26.8481 18.443 26.9429 17.9582 26.9915 16.4517C26.9915 16.2491 27.1002 16.1558 27.2574 16.1558H33.7139C33.9198 16.1558 34.0261 16.2036 34.0747 16.4517L43.8913 49.2139C43.9514 49.462 43.8913 49.6053 43.6392 49.6053H38.5563C38.2904 49.6053 38.147 49.5462 38.0984 49.3436L35.5454 40.2041H25.6572L25.6664 40.2063ZM34.2666 35.2747C33.3994 31.9202 31.3644 24.5717 30.6059 21.0146H30.5458C29.896 24.558 28.2564 30.5684 26.9938 35.2747H34.2666ZM48.1416 18.4088C48.1416 16.4539 49.5153 15.3024 51.2982 15.3024C53.1783 15.3024 54.4548 16.5586 54.4548 18.4088C54.4548 20.4115 53.1297 21.5153 51.2381 21.5153C49.395 21.5153 48.1301 20.4138 48.1301 18.4088H48.1416ZM48.4908 25.3067C48.4908 25.0701 48.5879 24.9745 48.84 24.9745H53.6824C53.9599 24.9745 54.0547 25.0701 54.0547 25.3295V49.2844C54.0547 49.5325 54.0061 49.6281 53.6939 49.6281H48.9233C48.6111 49.6281 48.5139 49.4847 48.5139 49.2366V25.3045L48.4908 25.3067Z" fill="#1E1E1E"/>
</svg>
