<svg width="67" height="100" viewBox="0 0 67 100" fill="none" xmlns="http://www.w3.org/2000/svg">
<path fill-rule="evenodd" clip-rule="evenodd" d="M0.588497 0.781999C0.797486 0.535804 1.0515 0.339178 1.33445 0.20457C1.6174 0.0699612 1.92313 0.000301352 2.23228 0L64.7676 0C65.0767 0.000155535 65.3823 0.0696106 65.6652 0.203972C65.9481 0.338334 66.2021 0.534678 66.4112 0.780586C66.6203 1.02649 66.7799 1.31661 66.8798 1.6326C66.9798 1.94858 67.0181 2.28355 66.9921 2.61632L62.5253 60.1367C62.4884 60.6066 62.3248 61.0546 62.0549 61.4252C61.785 61.7958 61.4206 62.0728 61.0066 62.222L34.2057 71.8763C33.7476 72.0412 33.2523 72.0412 32.7942 71.8763L5.99334 62.222C5.57935 62.0728 5.21488 61.7958 4.94498 61.4252C4.67507 61.0546 4.51155 60.6066 4.47462 60.1367L0.00781192 2.61632C-0.0179912 2.2838 0.02029 1.94911 0.120238 1.63338C0.220186 1.31766 0.379629 1.02776 0.588497 0.781999ZM49.1338 14.4815H17.8661V19.3086H44.667V28.9629H26.7997V33.7901H44.667V44.1202L33.5 48.1412L22.3329 44.1202V38.6172H17.8661V47.5957L33.5 53.229L49.1338 47.5957V14.4815Z" fill="#1E1E1E"/>
<path d="M20.27 95.15C19.21 95.15 18.25 94.92 17.39 94.46C16.54 93.99 15.87 93.345 15.38 92.525C14.9 91.705 14.66 90.78 14.66 89.75C14.66 88.72 14.905 87.795 15.395 86.975C15.885 86.155 16.555 85.515 17.405 85.055C18.265 84.585 19.225 84.35 20.285 84.35C21.145 84.35 21.93 84.5 22.64 84.8C23.35 85.1 23.95 85.535 24.44 86.105L23.18 87.29C22.42 86.47 21.485 86.06 20.375 86.06C19.655 86.06 19.01 86.22 18.44 86.54C17.87 86.85 17.425 87.285 17.105 87.845C16.785 88.405 16.625 89.04 16.625 89.75C16.625 90.46 16.785 91.095 17.105 91.655C17.425 92.215 17.87 92.655 18.44 92.975C19.01 93.285 19.655 93.44 20.375 93.44C21.485 93.44 22.42 93.025 23.18 92.195L24.44 93.395C23.95 93.965 23.345 94.4 22.625 94.7C21.915 95 21.13 95.15 20.27 95.15ZM29.5048 95.15C28.6948 95.15 27.9098 95.035 27.1498 94.805C26.3998 94.575 25.8048 94.27 25.3648 93.89L26.0398 92.375C26.4698 92.715 26.9948 92.995 27.6148 93.215C28.2448 93.425 28.8748 93.53 29.5048 93.53C30.2848 93.53 30.8648 93.405 31.2448 93.155C31.6348 92.905 31.8298 92.575 31.8298 92.165C31.8298 91.865 31.7198 91.62 31.4998 91.43C31.2898 91.23 31.0198 91.075 30.6898 90.965C30.3598 90.855 29.9098 90.73 29.3398 90.59C28.5398 90.4 27.8898 90.21 27.3898 90.02C26.8998 89.83 26.4748 89.535 26.1148 89.135C25.7648 88.725 25.5898 88.175 25.5898 87.485C25.5898 86.905 25.7448 86.38 26.0548 85.91C26.3748 85.43 26.8498 85.05 27.4798 84.77C28.1198 84.49 28.8998 84.35 29.8198 84.35C30.4598 84.35 31.0898 84.43 31.7098 84.59C32.3298 84.75 32.8648 84.98 33.3148 85.28L32.6998 86.795C32.2398 86.525 31.7598 86.32 31.2598 86.18C30.7598 86.04 30.2748 85.97 29.8048 85.97C29.0348 85.97 28.4598 86.1 28.0798 86.36C27.7098 86.62 27.5248 86.965 27.5248 87.395C27.5248 87.695 27.6298 87.94 27.8398 88.13C28.0598 88.32 28.3348 88.47 28.6648 88.58C28.9948 88.69 29.4448 88.815 30.0148 88.955C30.7948 89.135 31.4348 89.325 31.9348 89.525C32.4348 89.715 32.8598 90.01 33.2098 90.41C33.5698 90.81 33.7498 91.35 33.7498 92.03C33.7498 92.61 33.5898 93.135 33.2698 93.605C32.9598 94.075 32.4848 94.45 31.8448 94.73C31.2048 95.01 30.4248 95.15 29.5048 95.15ZM38.9384 95.15C38.1284 95.15 37.3434 95.035 36.5834 94.805C35.8334 94.575 35.2384 94.27 34.7984 93.89L35.4734 92.375C35.9034 92.715 36.4284 92.995 37.0484 93.215C37.6784 93.425 38.3084 93.53 38.9384 93.53C39.7184 93.53 40.2984 93.405 40.6784 93.155C41.0684 92.905 41.2634 92.575 41.2634 92.165C41.2634 91.865 41.1534 91.62 40.9334 91.43C40.7234 91.23 40.4534 91.075 40.1234 90.965C39.7934 90.855 39.3434 90.73 38.7734 90.59C37.9734 90.4 37.3234 90.21 36.8234 90.02C36.3334 89.83 35.9084 89.535 35.5484 89.135C35.1984 88.725 35.0234 88.175 35.0234 87.485C35.0234 86.905 35.1784 86.38 35.4884 85.91C35.8084 85.43 36.2834 85.05 36.9134 84.77C37.5534 84.49 38.3334 84.35 39.2534 84.35C39.8934 84.35 40.5234 84.43 41.1434 84.59C41.7634 84.75 42.2984 84.98 42.7484 85.28L42.1334 86.795C41.6734 86.525 41.1934 86.32 40.6934 86.18C40.1934 86.04 39.7084 85.97 39.2384 85.97C38.4684 85.97 37.8934 86.1 37.5134 86.36C37.1434 86.62 36.9584 86.965 36.9584 87.395C36.9584 87.695 37.0634 87.94 37.2734 88.13C37.4934 88.32 37.7684 88.47 38.0984 88.58C38.4284 88.69 38.8784 88.815 39.4484 88.955C40.2284 89.135 40.8684 89.325 41.3684 89.525C41.8684 89.715 42.2934 90.01 42.6434 90.41C43.0034 90.81 43.1834 91.35 43.1834 92.03C43.1834 92.61 43.0234 93.135 42.7034 93.605C42.3934 94.075 41.9184 94.45 41.2784 94.73C40.6384 95.01 39.8584 95.15 38.9384 95.15ZM48.7638 88.835C49.7338 88.955 50.4738 89.285 50.9838 89.825C51.4938 90.365 51.7488 91.04 51.7488 91.85C51.7488 92.46 51.5938 93.015 51.2838 93.515C50.9738 94.015 50.5038 94.415 49.8738 94.715C49.2538 95.005 48.4938 95.15 47.5938 95.15C46.8438 95.15 46.1188 95.045 45.4188 94.835C44.7288 94.615 44.1388 94.315 43.6488 93.935L44.4888 92.42C44.8688 92.74 45.3288 92.995 45.8688 93.185C46.4188 93.365 46.9838 93.455 47.5638 93.455C48.2538 93.455 48.7938 93.315 49.1838 93.035C49.5838 92.745 49.7838 92.355 49.7838 91.865C49.7838 91.375 49.5938 90.995 49.2138 90.725C48.8438 90.445 48.2738 90.305 47.5038 90.305H46.5438V88.97L48.9288 86.135H44.1588V84.5H51.3138V85.805L48.7638 88.835Z" fill="#1E1E1E"/>
</svg>
