<svg width="48" height="97" viewBox="0 0 48 97" fill="none" xmlns="http://www.w3.org/2000/svg">
<path d="M1 12.5C1 9.45001 2.2116 6.52494 4.36827 4.36827C6.52494 2.2116 9.45001 1 12.5 1H24V24H12.5C9.45001 24 6.52494 22.7884 4.36827 20.6317C2.2116 18.4751 1 15.55 1 12.5Z" stroke="#1E1E1E" stroke-width="2" stroke-linecap="round" stroke-linejoin="round"/>
<path d="M24 1H35.5C37.0102 1 38.5056 1.29746 39.9009 1.87539C41.2961 2.45331 42.5639 3.3004 43.6317 4.36827C44.6996 5.43615 45.5467 6.7039 46.1246 8.09914C46.7025 9.49438 47 10.9898 47 12.5C47 14.0102 46.7025 15.5056 46.1246 16.9009C45.5467 18.2961 44.6996 19.5639 43.6317 20.6317C42.5639 21.6996 41.2961 22.5467 39.9009 23.1246C38.5056 23.7025 37.0102 24 35.5 24H24V1Z" stroke="#1E1E1E" stroke-width="2" stroke-linecap="round" stroke-linejoin="round"/>
<path d="M24 35.5C24 33.9898 24.2975 32.4944 24.8754 31.0991C25.4533 29.7039 26.3004 28.4361 27.3683 27.3683C28.4361 26.3004 29.7039 25.4533 31.0991 24.8754C32.4944 24.2975 33.9898 24 35.5 24C37.0102 24 38.5056 24.2975 39.9009 24.8754C41.2961 25.4533 42.5639 26.3004 43.6317 27.3683C44.6996 28.4361 45.5467 29.7039 46.1246 31.0991C46.7025 32.4944 47 33.9898 47 35.5C47 37.0102 46.7025 38.5056 46.1246 39.9009C45.5467 41.2961 44.6996 42.5639 43.6317 43.6317C42.5639 44.6996 41.2961 45.5467 39.9009 46.1246C38.5056 46.7025 37.0102 47 35.5 47C33.9898 47 32.4944 46.7025 31.0991 46.1246C29.7039 45.5467 28.4361 44.6996 27.3683 43.6317C26.3004 42.5639 25.4533 41.2961 24.8754 39.9009C24.2975 38.5056 24 37.0102 24 35.5V35.5Z" stroke="#1E1E1E" stroke-width="2" stroke-linecap="round" stroke-linejoin="round"/>
<path d="M1 58.5C1 55.45 2.2116 52.5249 4.36827 50.3683C6.52494 48.2116 9.45001 47 12.5 47H24V58.5C24 61.55 22.7884 64.4751 20.6317 66.6317C18.4751 68.7884 15.55 70 12.5 70C9.45001 70 6.52494 68.7884 4.36827 66.6317C2.2116 64.4751 1 61.55 1 58.5Z" stroke="#1E1E1E" stroke-width="2" stroke-linecap="round" stroke-linejoin="round"/>
<path d="M1 35.5C1 32.45 2.2116 29.5249 4.36827 27.3683C6.52494 25.2116 9.45001 24 12.5 24H24V47H12.5C9.45001 47 6.52494 45.7884 4.36827 43.6317C2.2116 41.4751 1 38.55 1 35.5Z" stroke="#1E1E1E" stroke-width="2" stroke-linecap="round" stroke-linejoin="round"/>
<path d="M3.2 92V81.35H10.295V82.835H4.88V86.015H9.41V87.41H4.88V92H3.2ZM11.6765 82.865V81.05H13.3265V82.865H11.6765ZM11.6765 92V84.155H13.3265V92H11.6765ZM18.4143 92.075C17.7043 92.075 17.0793 91.89 16.5393 91.52C16.0093 91.15 15.5893 90.665 15.2793 90.065C14.9793 89.455 14.8293 88.795 14.8293 88.085C14.8293 87.345 14.9843 86.665 15.2943 86.045C15.6043 85.425 16.0293 84.935 16.5693 84.575C17.1193 84.205 17.7543 84.02 18.4743 84.02C19.1043 84.02 19.6543 84.17 20.1243 84.47C20.6043 84.77 20.9993 85.16 21.3093 85.64V84.155H22.7643V91.775C22.7643 92.535 22.5793 93.18 22.2093 93.71C21.8493 94.24 21.3543 94.645 20.7243 94.925C20.0943 95.205 19.3843 95.345 18.5943 95.345C17.7243 95.345 16.9993 95.195 16.4193 94.895C15.8493 94.595 15.3693 94.185 14.9793 93.665L15.9093 92.795C16.2093 93.215 16.5943 93.535 17.0643 93.755C17.5443 93.975 18.0543 94.085 18.5943 94.085C19.0443 94.085 19.4593 94 19.8393 93.83C20.2293 93.67 20.5393 93.42 20.7693 93.08C20.9993 92.74 21.1143 92.305 21.1143 91.775V90.575C20.8343 91.045 20.4493 91.415 19.9593 91.685C19.4693 91.945 18.9543 92.075 18.4143 92.075ZM18.9543 90.74C19.2843 90.74 19.5993 90.67 19.8993 90.53C20.1993 90.38 20.4543 90.185 20.6643 89.945C20.8843 89.705 21.0343 89.45 21.1143 89.18V87.125C20.9143 86.625 20.5993 86.22 20.1693 85.91C19.7493 85.59 19.3043 85.43 18.8343 85.43C18.3543 85.43 17.9393 85.56 17.5893 85.82C17.2493 86.08 16.9843 86.42 16.7943 86.84C16.6043 87.25 16.5093 87.68 16.5093 88.13C16.5093 88.61 16.6143 89.05 16.8243 89.45C17.0443 89.84 17.3393 90.155 17.7093 90.395C18.0793 90.625 18.4943 90.74 18.9543 90.74ZM36.7429 92H35.0929V87.605C35.0929 86.885 34.9729 86.355 34.7329 86.015C34.4929 85.665 34.1429 85.49 33.6829 85.49C33.2229 85.49 32.7929 85.665 32.3929 86.015C32.0029 86.355 31.7279 86.8 31.5679 87.35V92H29.9179V87.605C29.9179 86.865 29.7979 86.33 29.5579 86C29.3179 85.66 28.9729 85.49 28.5229 85.49C28.0629 85.49 27.6329 85.66 27.2329 86C26.8429 86.34 26.5629 86.785 26.3929 87.335V92H24.7429V84.155H26.2429V85.73C26.5429 85.18 26.9479 84.76 27.4579 84.47C27.9679 84.17 28.5479 84.02 29.1979 84.02C29.8479 84.02 30.3579 84.19 30.7279 84.53C31.1079 84.87 31.3429 85.295 31.4329 85.805C32.1129 84.615 33.0979 84.02 34.3879 84.02C35.0079 84.02 35.4879 84.17 35.8279 84.47C36.1679 84.76 36.4029 85.15 36.5329 85.64C36.6729 86.12 36.7429 86.645 36.7429 87.215V92ZM38.0743 89.705C38.0743 89.205 38.2143 88.77 38.4943 88.4C38.7743 88.02 39.1643 87.73 39.6643 87.53C40.1743 87.32 40.7593 87.215 41.4193 87.215C41.7693 87.215 42.1243 87.245 42.4843 87.305C42.8543 87.355 43.1793 87.43 43.4593 87.53V87.035C43.4593 86.485 43.2943 86.055 42.9643 85.745C42.6343 85.435 42.1593 85.28 41.5393 85.28C41.1093 85.28 40.6943 85.355 40.2943 85.505C39.8943 85.655 39.4793 85.875 39.0493 86.165L38.4943 85.055C39.0143 84.715 39.5343 84.46 40.0543 84.29C40.5843 84.11 41.1393 84.02 41.7193 84.02C42.7693 84.02 43.5943 84.3 44.1943 84.86C44.8043 85.41 45.1093 86.195 45.1093 87.215V90.14C45.1093 90.33 45.1393 90.465 45.1993 90.545C45.2693 90.625 45.3843 90.67 45.5443 90.68V92C45.3943 92.03 45.2593 92.05 45.1393 92.06C45.0193 92.07 44.9193 92.075 44.8393 92.075C44.4793 92.075 44.2093 91.99 44.0293 91.82C43.8593 91.64 43.7593 91.44 43.7293 91.22L43.6843 90.77C43.3443 91.21 42.9093 91.55 42.3793 91.79C41.8493 92.03 41.3143 92.15 40.7743 92.15C40.2543 92.15 39.7893 92.045 39.3793 91.835C38.9693 91.615 38.6493 91.32 38.4193 90.95C38.1893 90.58 38.0743 90.165 38.0743 89.705ZM43.0693 90.185C43.3293 89.925 43.4593 89.68 43.4593 89.45V88.55C42.8693 88.33 42.2693 88.22 41.6593 88.22C41.0593 88.22 40.5693 88.345 40.1893 88.595C39.8193 88.835 39.6343 89.16 39.6343 89.57C39.6343 89.91 39.7693 90.225 40.0393 90.515C40.3193 90.795 40.7193 90.935 41.2393 90.935C41.5893 90.935 41.9293 90.865 42.2593 90.725C42.5893 90.585 42.8593 90.405 43.0693 90.185Z" fill="#1E1E1E"/>
</svg>
