<svg width="75" height="100" viewBox="0 0 75 100" fill="none" xmlns="http://www.w3.org/2000/svg">
<path d="M37.5042 3.09402e-06C16.783 -0.00825947 0 16.5334 0 36.9502C0 53.0952 10.4988 66.8194 25.1201 71.8595C27.0892 72.347 26.7875 70.9672 26.7875 70.0252V63.6218C15.4173 64.9355 14.9564 57.5157 14.1939 56.2763C12.6522 53.6819 9.00737 53.0209 10.0966 51.7815C12.6857 50.4678 15.3251 52.112 18.3834 56.5655C20.5955 59.7962 24.9106 59.2509 27.0975 58.7138C27.5751 56.7721 28.5974 55.0369 30.005 53.6902C18.2242 51.608 13.3142 44.5187 13.3142 36.0909C13.3142 32.0009 14.6799 28.2415 17.3612 25.2091C15.6519 20.2102 17.5204 15.9302 17.7718 15.294C22.6399 14.8644 27.7008 18.7312 28.0946 19.037C30.8597 18.3016 34.0185 17.9132 37.5545 17.9132C41.1071 17.9132 44.2744 18.3181 47.0646 19.0617C48.0114 18.3512 52.7036 15.0296 57.2282 15.4345C57.4712 16.0707 59.2978 20.2516 57.6891 25.1843C60.4039 28.2249 61.7864 32.0174 61.7864 36.1157C61.7864 44.56 56.8428 51.6576 45.0285 53.7067C46.0404 54.688 46.8439 55.8584 47.392 57.1493C47.9401 58.4403 48.2219 59.826 48.2209 61.2256V70.521C48.2879 71.2646 48.2209 72 49.4777 72C64.3168 67.0672 75 53.244 75 36.9585C75 16.5334 58.2086 3.09402e-06 37.5042 3.09402e-06Z" fill="#1E1E1E"/>
<path d="M32.55 95.075C31.84 95.075 31.18 94.93 30.57 94.64C29.97 94.35 29.44 93.95 28.98 93.44C28.53 92.93 28.175 92.35 27.915 91.7C27.665 91.05 27.54 90.36 27.54 89.63C27.54 88.91 27.665 88.23 27.915 87.59C28.165 86.94 28.52 86.37 28.98 85.88C29.44 85.38 29.975 84.99 30.585 84.71C31.205 84.42 31.88 84.275 32.61 84.275C33.62 84.275 34.47 84.49 35.16 84.92C35.85 85.34 36.375 85.9 36.735 86.6L35.445 87.53C35.155 86.95 34.755 86.515 34.245 86.225C33.735 85.935 33.175 85.79 32.565 85.79C31.895 85.79 31.31 85.975 30.81 86.345C30.31 86.705 29.925 87.18 29.655 87.77C29.385 88.36 29.25 88.995 29.25 89.675C29.25 90.395 29.4 91.05 29.7 91.64C30 92.22 30.405 92.685 30.915 93.035C31.435 93.385 32.025 93.56 32.685 93.56C33.785 93.56 34.775 93.035 35.655 91.985V90.86H33.42V89.615H37.065V95H35.655V93.68C34.765 94.61 33.73 95.075 32.55 95.075ZM38.7712 85.865V84.05H40.4213V85.865H38.7712ZM38.7712 95V87.155H40.4213V95H38.7712ZM46.7691 94.595C46.5591 94.695 46.2691 94.81 45.8991 94.94C45.5291 95.06 45.1341 95.12 44.7141 95.12C44.1941 95.12 43.7441 94.98 43.3641 94.7C42.9941 94.42 42.8091 93.965 42.8091 93.335V88.43H41.7741V87.155H42.8091V84.575H44.4591V87.155H46.1691V88.43H44.4591V92.81C44.4791 93.09 44.5641 93.295 44.7141 93.425C44.8741 93.545 45.0691 93.605 45.2991 93.605C45.5291 93.605 45.7491 93.565 45.9591 93.485C46.1691 93.405 46.3241 93.34 46.4241 93.29L46.7691 94.595Z" fill="#1E1E1E"/>
</svg>
