<svg width="78" height="100" viewBox="0 0 78 100" fill="none" xmlns="http://www.w3.org/2000/svg">
<path d="M39.9263 71.9332C38.9873 71.7686 38.0145 71.3221 37.4628 70.8282C37.0883 70.4347 36.8746 69.9149 36.8638 69.3714C36.8638 68.8189 37.1453 68.0432 37.5912 67.2697C37.8614 66.8344 38.073 66.3654 38.2239 65.8715C38.3185 65.531 38.5167 64.9785 38.6698 64.6267L38.94 63.9817L39.0098 59.6722C39.0458 57.2886 39.1156 55.0808 39.1742 54.7381C39.3273 53.7503 39.584 52.7874 39.9241 51.8493L40.183 51.2269L39.807 51.0036C39.4669 50.7916 39.1855 50.4985 38.0708 49.1702C36.6994 47.5488 34.8935 46.6558 32.3354 46.3513C31.5022 46.2702 30.6578 46.2093 29.8133 46.1754C26.0595 45.9996 23.9135 45.2125 21.9792 43.3092C20.5358 41.8885 19.7859 40.231 19.4819 37.7887C19.0721 34.4873 18.6149 32.7959 17.7705 31.4226C17.5624 31.0834 17.3226 30.7648 17.0544 30.4709L16.7144 30.1304L15.9645 30.613C15.5547 30.8836 14.9782 31.2241 14.6967 31.3775C13.7577 31.8939 12.866 32.4689 12.0103 33.0914C9.9116 34.6181 7.62373 36.5326 6.36946 37.7887C5.8065 38.3525 5.51376 38.5983 5.38316 38.5758C4.52746 38.4472 5.18274 34.7353 6.57888 31.939C8.36233 28.3331 11.364 25.0091 14.8364 22.7652C17.6872 20.9206 22.2967 18.3836 24.4292 17.4906C28.2168 15.9052 33.119 14.1891 36.4742 13.2735C37.1791 13.0728 37.6114 12.8969 37.9042 12.6985C38.5617 12.2407 39.2057 12.0174 39.9443 12.0062C40.5658 11.9949 40.6244 11.9836 41.2234 11.5822C41.9282 11.1244 42.1376 11.0996 42.8424 11.3477L43.2996 11.5123L43.8625 11.1244L44.4255 10.7478L45.2339 10.7591C45.8554 10.7704 46.1369 10.7478 46.4071 10.6305C46.7471 10.4772 46.7584 10.4546 46.853 9.89087C47.0646 8.66861 47.0871 8.05748 46.9588 7.3178C46.7944 6.3436 46.7719 2.56179 46.9363 1.81987C47.1119 1.02156 47.229 0.856938 47.828 0.563775C48.7197 0.128541 49.3885 0 50.9243 0C52.8 0 53.7503 0.259337 54.4552 0.940377C55.0879 1.55151 55.1938 2.9835 54.865 6.3436C54.6646 8.28073 54.6421 8.82196 54.7006 10.0893C54.7231 10.8989 54.7817 11.6634 54.8064 11.7694C54.8537 11.9701 54.901 11.9814 55.5811 11.9926C56.2499 12.0039 56.367 12.04 56.9997 12.3692C57.61 12.6872 58.0671 13.0751 58.1617 13.357C58.1729 13.4156 58.2788 13.4156 58.4657 13.357C58.8282 13.251 59.1457 13.3682 59.4047 13.6862C59.5578 13.8869 59.6501 13.9207 60.0037 13.9207C60.4856 13.9207 60.6612 14.038 61.0598 14.6266C61.2462 14.8907 61.5018 15.0983 61.7984 15.2264C62.4559 15.5557 63.3476 16.4713 63.6877 17.1997C64.2146 18.2799 64.3204 19.5359 63.9917 20.6635C63.8746 21.0874 63.8746 21.0987 64.12 21.5092C64.6357 22.3909 64.8249 23.4711 64.6132 24.3867L64.4961 24.9279L64.8474 25.2797C66.5948 27.0296 66.3358 29.8846 64.2033 32.4329C63.965 32.7239 63.7638 33.0436 63.6044 33.3845C63.1945 34.476 62.7239 35.2405 62.1159 35.8741L61.4944 36.5078H60.8616C60.2289 36.5078 59.3371 36.2959 58.7967 36.014C58.5738 35.8967 58.5625 35.8967 58.6098 36.0365C58.7517 36.5529 59.1029 38.6547 59.22 39.8183C59.4069 41.6044 59.3484 44.2 59.1029 45.3163C58.9236 46.143 58.6231 46.9386 58.2112 47.6773C57.977 48.054 57.9658 48.1351 58.0108 48.5929C58.0806 49.2379 57.9297 50.3203 57.6708 51.0352C57.3533 51.8696 57.2362 52.2575 57.1664 52.6792C57.1078 53.0422 57.1078 53.0422 57.3668 53.0422C57.7068 53.0422 57.8937 53.2429 57.8937 53.6421C57.8937 53.818 57.7406 54.7696 57.5537 55.7438C57.038 58.4815 57.002 58.786 57.002 61.4402C56.9907 64.1779 56.9907 64.1531 57.6122 64.5635L59.0084 65.4678C60.2095 66.2662 61.4957 66.928 62.8432 67.4411C64.8023 68.2168 65.0726 68.4153 65.0726 69.0737C65.0726 69.3669 65.014 69.4729 64.7686 69.7074C64.0187 70.4358 62.5392 70.6004 59.5601 70.2825C58.012 70.1372 56.4581 70.0627 54.9033 70.0592C50.7982 70.0006 50.1992 69.8585 49.661 68.837C49.357 68.2506 49.4155 67.4862 49.8366 66.2301C50.0235 65.6776 50.1879 65.1138 50.3298 64.5387C50.6113 63.1767 50.4244 61.5552 49.7668 59.7241L49.2039 58.1613C48.6522 56.576 48.3482 53.6737 48.6769 53.0174C48.7355 52.8889 48.8413 52.8641 49.1228 52.8754L49.4741 52.9114L49.7668 52.3003C49.9898 51.8177 50.2352 51.502 50.904 50.8322L51.7597 49.9753L51.7124 49.4228C51.6764 48.8951 50.9851 46.3333 50.8905 46.3446C50.8545 46.3446 50.6676 46.6039 50.4559 46.9309C49.9402 47.7067 48.803 48.9041 48.1568 49.3394C47.8753 49.5265 47.6411 49.7498 47.6411 49.8219C47.6298 50.1399 47.3596 50.7623 47.0308 51.1953C46.7133 51.6193 46.6908 51.6892 46.7381 52.0635C46.8192 52.616 46.6435 54.3885 46.4341 55.3176C46.2443 56.0075 45.9847 56.6762 45.6595 57.3134C44.8511 58.9934 44.2408 60.4953 44.0877 61.1899C43.9771 61.8586 43.9064 62.5333 43.876 63.2105C43.84 64.0088 43.7589 64.7845 43.7004 64.9492C43.6193 65.1724 43.6193 65.3483 43.6891 65.6888C43.7477 65.9346 43.7837 66.4871 43.7702 66.9224C43.7589 67.5222 43.8062 67.9101 43.9819 68.6137C44.2859 69.8112 44.3444 70.5644 44.2048 71.0109C44.1102 71.2928 44.0179 71.3988 43.7004 71.5521C42.9956 71.9152 41.0027 72.1159 39.9241 71.9287L39.9263 71.9332ZM42.7749 70.9703C43.1847 70.853 43.5383 70.5012 43.5383 70.1833C43.5383 70.0412 43.4212 69.6308 43.2793 69.2677C42.9978 68.5754 42.5159 66.742 42.5159 66.4375C42.5159 66.2842 42.5272 66.2729 42.7614 66.4015L43.0203 66.5435V66.2143C42.9828 65.9108 42.9156 65.6117 42.8199 65.3213C42.597 64.6515 42.5745 64.6402 41.1536 64.5568L40.192 64.5094L39.8407 64.8499C39.6476 65.049 39.4783 65.27 39.3363 65.5084C39.1832 65.8129 39.1247 66.2729 39.2192 66.3766C39.2418 66.4127 39.4782 66.3766 39.7349 66.318C39.8873 66.2726 40.0445 66.2453 40.2033 66.2368C40.2033 66.2481 39.9443 66.4601 39.6178 66.6833C38.2104 67.741 37.7173 68.3859 37.7173 69.2091C37.7173 70.066 38.5257 70.7358 39.7935 70.9365C40.6604 71.065 42.3493 71.1011 42.7726 70.9725L42.7749 70.9703ZM61.8569 69.5721C62.2082 69.1482 62.1609 68.7152 61.7151 68.2213C61.4561 67.962 61.1634 67.7387 60.8346 67.5628C60.5058 67.3869 60.1771 67.1862 59.8483 66.9765C59.2537 66.5905 58.6429 66.2301 58.0176 65.8963C57.4771 65.6031 56.9502 65.2964 56.4345 64.9695L56.2228 64.8048V61.5755C56.2228 58.3936 56.2116 58.3462 56.0472 58.3936C55.2253 58.6168 53.8652 58.7228 52.1425 58.6867L50.278 58.6642L50.5482 59.3227C51.0526 60.5675 51.3116 62.2363 51.3116 64.1509C51.3116 64.868 51.2643 65.1251 51.0887 65.6302C50.9941 65.876 50.913 66.1241 50.8297 66.3699C50.7937 66.4759 50.9243 66.5571 51.4039 66.6991C51.7552 66.8051 52.2709 66.9111 52.5659 66.9449L53.1063 67.0036L53.0478 67.5448C52.9892 68.1559 53.059 68.8009 53.2121 69.0016C53.3067 69.1189 53.658 69.1662 55.2883 69.2361C56.5201 69.2947 57.8577 69.4233 58.9115 69.5766C59.8258 69.7187 60.8121 69.836 61.1048 69.836C61.598 69.8472 61.6453 69.8247 61.8547 69.5766L61.8569 69.5721ZM43.0811 64.0764C43.1284 64.0404 43.1982 63.4067 43.223 62.6557C43.3176 60.554 43.3986 60.2473 44.4548 57.8749C45.3217 55.9378 45.7811 54.1292 45.7451 52.8483L45.7225 52.0838L45.3938 52.4018C44.7137 53.0828 45.1821 52.0139 45.9928 51.0623C46.603 50.3339 46.8147 49.9347 46.907 49.2897C46.9543 49.0304 47.0489 48.9019 47.4474 48.5974C48.9387 47.4692 50.0878 45.9484 50.7666 44.2045C50.931 43.7805 51.3521 42.3373 51.7057 40.9977C52.3632 38.5194 52.7145 37.4505 53.032 36.9927C53.1491 36.8168 53.1964 36.7807 53.1739 36.898C53.0038 37.5278 52.8707 38.1671 52.7753 38.8125C52.6807 39.3876 52.5051 40.5151 52.388 41.3022C52.165 42.9123 51.9308 43.9452 51.6133 44.7435L51.4017 45.2847L51.9646 46.7415C52.5501 48.2321 52.8203 49.3145 52.8676 50.3587L52.9036 50.945L52.4465 51.0397C51.8432 51.1466 51.3048 51.4837 50.9445 51.9801C50.546 52.5551 50.323 53.0264 50.4289 53.1302C50.4762 53.1775 51.0504 53.2835 51.7079 53.3647C52.728 53.482 53.1153 53.482 54.4642 53.4008C55.0496 53.3782 55.6261 53.3196 56.2003 53.2362C56.3287 53.1888 56.4593 52.9317 56.6687 52.262C57.1506 50.724 57.2429 50.1828 57.1844 49.1026L57.1371 48.1509L57.3825 47.8329C57.9568 47.1045 58.4026 45.7898 58.5895 44.2496C58.8125 42.3711 58.4026 38.4359 57.6392 35.0533C57.2767 33.4431 57.1236 32.4802 57.1236 31.7766V31.1542L56.5494 31.2129C54.4844 31.4361 51.9871 31.3775 50.4626 31.0595C49.6295 30.8949 47.5308 30.2725 47.0736 30.0718L46.7111 29.9072L46.6638 30.3176C46.6278 30.5408 46.594 30.7641 46.5467 30.9986C46.4769 31.2444 46.4994 31.3031 46.934 31.727C47.4745 32.2795 47.6388 32.5614 47.6388 32.9357C47.6388 33.1703 47.5105 33.3597 46.853 34.0407C46.3815 34.5446 45.8585 34.9973 45.2924 35.3916L44.5291 35.908L44.2003 37.0468C43.0271 41.2165 42.8042 45.0096 43.5788 47.7224L43.7657 48.4035L43.3896 48.8725C41.9822 50.6451 41.1491 51.9959 41.0207 52.7491C40.9457 53.12 40.8593 53.4885 40.7617 53.8541C40.4577 55.0177 40.2213 56.7203 40.1177 58.565C40.0455 60.1092 39.9442 61.652 39.8137 63.1924L39.7552 63.6502L40.3406 63.8261C40.6694 63.9321 41.1626 64.0494 41.444 64.0967C41.971 64.1779 42.946 64.1554 43.0969 64.0742L43.0811 64.0764ZM54.4687 57.6156C55.3829 57.5569 56.2161 57.4149 56.3805 57.2751C56.4503 57.2277 56.5336 56.9819 56.5561 56.7338L56.6147 56.2873L55.8873 56.4519C55.3131 56.5692 54.7389 56.6391 54.1624 56.6865C52.7775 56.7451 51.3836 56.709 50.01 56.5692C49.5529 56.4993 49.5529 56.4993 49.6925 57.0969C49.8096 57.5434 49.8344 57.566 51.0301 57.6494C51.8273 57.7193 52.9419 57.708 54.4664 57.6133L54.4687 57.6156ZM53.7053 55.5725C54.901 55.4665 56.3917 55.2094 56.6845 55.056C56.779 55.0087 56.8601 54.8328 56.8961 54.6321L57.002 54.0097L57.0605 53.7165L56.7678 53.7751C55.4662 54.0457 54.4799 54.1269 52.5096 54.1269C50.5865 54.1269 50.3636 54.1157 49.8592 53.9398C49.6653 53.8579 49.4589 53.8099 49.2489 53.7977C49.1678 53.845 49.1543 54.5148 49.2264 54.9839C49.2737 55.2658 49.321 55.3131 49.6024 55.3943C50.4942 55.6401 51.9961 55.6987 53.7075 55.5589L53.7053 55.5725ZM31.939 44.978C34.9407 44.1098 38.8702 41.5593 42.0836 38.366C43.1284 37.3197 43.2568 37.1798 43.3964 36.7108L43.5833 36.1109C43.6058 36.0636 43.4189 35.9824 43.1735 35.9238C42.5294 35.7704 42.0363 35.3961 42.0363 35.0555C42.0363 34.8548 41.9192 34.6564 41.5792 34.2911C41.0275 33.6687 40.8878 33.398 40.8293 32.8004L40.782 32.3179L40.1245 31.8488C39.7484 31.5782 38.4356 30.8498 37.0395 30.1462C35.9764 29.6268 34.9359 29.0626 33.9207 28.4549C32.7475 27.6678 31.9616 26.7275 31.5157 25.6134C31.4346 25.3902 31.3288 25.203 31.2928 25.203C31.1982 25.203 28.559 27.7513 27.4331 28.9487C24.6544 31.8849 22.7426 34.4331 21.5333 36.7942C21.2293 37.3806 20.9006 38.0751 20.806 38.3322L20.6303 38.8013L20.842 39.5883C20.9704 40.0123 21.2406 40.7046 21.4523 41.115C22.1909 42.5718 23.0713 43.4513 24.526 44.1684C26.0865 44.9442 27.4692 45.2148 29.7795 45.1787C31.0226 45.1674 31.3874 45.1313 31.9368 44.9667L31.939 44.978ZM8.24749 34.6767C10.2178 32.9267 12.9381 31.0121 16.2708 29.0277C18.4528 27.7242 26.8859 23.4959 30.7681 21.7685C31.4729 21.4505 32.1057 21.1574 32.1755 21.1235C32.2453 21.0762 32.4457 20.571 32.6326 20.0073C33.4545 17.4004 33.8644 16.8839 35.3528 16.5434C35.5397 16.4961 35.587 16.4374 35.587 16.2503C35.587 15.9097 35.8212 15.1227 36.0216 14.7709C36.1747 14.5003 36.1748 14.489 36.0441 14.5251C35.9631 14.5477 35.4699 14.6897 34.9543 14.8431C27.8002 16.911 21.5491 19.6577 16.1537 23.0877C10.3957 26.7523 7.07653 31.1452 6.115 36.4063L6.04519 36.7942L6.75002 36.1019C7.12608 35.714 7.80613 35.0803 8.25199 34.6925L8.24749 34.6767ZM61.3187 35.6757C61.893 35.3825 62.7847 34.0317 63.1135 32.9628C63.208 32.5862 63.3949 32.2344 63.6652 31.9413C64.5321 30.9783 65.2482 29.2284 65.2595 28.0309C65.2595 26.1637 64.2033 25.4466 62.6676 26.2449C62.4672 26.3396 62.305 26.4095 62.2803 26.3869C62.1992 26.3058 62.6316 25.8818 63.1607 25.5525C63.8521 25.0948 63.9827 24.8242 63.9827 23.8499C63.9929 23.0625 63.7592 22.2912 63.3139 21.6422C63.1022 21.3242 63.0211 21.1145 63.0549 20.9837L63.2666 20.1967C63.5593 19.1503 63.4535 17.9529 62.9964 17.1906C62.3163 16.0405 61.4831 15.4768 60.3212 15.382L59.6411 15.3347L60.0397 15.7812C61.2242 17.0621 61.7984 18.67 61.5642 20.0456C61.4471 20.7514 61.3413 20.8913 60.6612 21.1619L60.2626 21.3265L60.3099 21.8677C60.391 22.7495 60.2401 23.3944 59.6772 24.5806C59.3957 25.1805 59.184 25.7194 59.2088 25.7781C59.2786 25.9788 60.0532 26.3531 60.6635 26.5065L61.2624 26.6485L60.8864 26.7771C60.3932 26.9304 60.2874 27.1537 60.2874 27.9633C60.2874 28.7029 60.3932 29.0096 60.9314 29.8192C61.1769 30.171 61.3413 30.5363 61.366 30.746C61.4133 31.0753 61.4021 31.0978 61.1318 31.1926C60.8255 31.2786 60.5106 31.3301 60.1928 31.3459C59.0894 31.4158 59.0084 31.4519 58.5152 31.921C58.0693 32.3449 58.0581 32.3675 58.0581 32.8365C58.0581 33.4815 58.3035 34.7872 58.4567 34.9631C58.6571 35.1751 59.7695 35.7276 60.2041 35.8088C60.5789 35.903 60.9751 35.8573 61.3187 35.6802V35.6757ZM45.074 34.7962C45.7901 34.2324 46.353 33.6687 46.6683 33.1861C46.8687 32.8929 46.88 32.8343 46.7854 32.5862C46.621 32.2096 45.5424 31.2354 44.9434 30.9422C44.5443 30.7632 44.1221 30.641 43.6891 30.5792L42.9505 30.4845L42.4934 29.9094C41.5431 28.7345 41.0162 27.8189 40.2641 26.0442C39.6065 24.54 39.0323 23.6605 38.1181 22.7901C37.742 22.4383 37.4741 22.1451 37.4966 22.1451C37.5439 22.1451 37.9897 22.3683 38.5054 22.639C39.3611 23.0967 39.4669 23.1328 39.8542 23.0742C41.2504 22.9096 42.4821 21.3017 42.928 19.0466C43.0564 18.4129 43.3153 17.7657 43.5855 17.3778C43.5968 17.3665 44.1372 17.7183 44.77 18.1761C46.3778 19.3149 46.7291 19.4908 47.6433 19.5269C48.2423 19.5495 48.5824 19.5044 49.661 19.245C51.9601 18.6813 54.4461 18.458 55.9594 18.6587C56.8151 18.776 58.0468 19.1526 58.9611 19.5856C59.8641 20.0095 60.0397 20.0321 60.3324 19.7727C60.5779 19.5607 60.5779 19.5269 60.5779 18.7399C60.5666 17.5763 60.1433 16.3202 59.4993 15.5692C59.1705 15.1813 58.245 14.5477 57.3285 14.0651C57.0027 13.892 56.6784 13.7161 56.3557 13.5374C55.9211 13.278 55.4302 13.3141 54.0926 13.6659C52.5433 14.0651 52.1335 14.0651 50.3636 13.6073C48.8616 13.2307 48.7693 13.2194 47.2898 13.4539C46.5039 13.5712 44.5336 13.5013 43.876 13.3254C43.5473 13.2307 43.2185 13.1382 42.9032 13.021C42.329 12.7977 41.3315 12.7616 40.4285 12.9262C38.6338 13.2442 37.2736 14.2184 36.7805 15.5444C36.5215 16.2142 36.5576 16.5321 36.8976 16.7419C37.438 17.0824 38.1519 18.0115 38.1519 18.3746C38.1519 18.3971 37.9762 18.246 37.7758 18.034C37.2714 17.5063 36.8143 17.2696 36.2738 17.2696C35.9242 17.2793 35.5842 17.3866 35.2921 17.5795C35.0001 17.7723 34.7676 18.043 34.621 18.361C34.4632 18.776 34.3301 19.1999 34.2224 19.6307C33.8936 20.8281 33.6009 21.4641 32.9794 22.3097C32.4277 23.0742 32.3466 23.4147 32.5448 24.2717C33.0379 26.432 33.8936 27.3025 37.4696 29.3344C39.3453 30.4033 40.3069 31.0031 41.0117 31.5308C41.5521 31.93 41.5634 31.9548 41.5161 32.2592C41.4103 32.9651 41.8561 33.7273 42.7366 34.3497C42.9595 34.503 43.0991 34.6677 43.0991 34.7849C43.0991 34.9969 43.6981 35.2901 44.1305 35.2901C44.3759 35.2901 44.5651 35.1841 45.0695 34.7962H45.074ZM59.5353 30.8363C60.8954 30.8836 60.9652 30.7776 60.2401 29.932C59.4767 29.0502 59.2673 28.3353 59.5488 27.5483L59.6659 27.2439L59.184 27.0093C59.0196 26.9282 58.8552 26.8447 58.6909 26.7861C58.6098 27.1041 58.5265 27.4085 58.4567 27.7265C58.281 28.4436 58.0693 30.2995 58.0581 31.0866C58.0581 31.1565 58.1752 31.1339 58.3756 31.0054C58.6571 30.8408 58.7989 30.8182 59.5375 30.8408L59.5353 30.8363ZM54.9731 30.7663C55.795 30.719 56.6394 30.6604 56.8624 30.6243L57.2722 30.5656L57.3195 29.2148C57.3893 27.289 57.6708 26.1502 58.504 24.328C59.0894 23.0359 59.3484 21.9083 59.22 21.0626C59.1727 20.6996 59.1502 20.6748 58.6571 20.4628C57.7541 20.1037 56.8137 19.8473 55.8535 19.6983C54.928 19.5698 52.2056 19.6397 51.1855 19.8404C50.7621 19.9103 49.9898 20.0749 49.4741 20.2034C48.195 20.4966 47.515 20.4628 46.5422 20.0388C45.5807 19.6149 44.9704 19.2292 44.3962 18.688C43.9391 18.2641 43.8918 18.2415 43.7747 18.3836C43.6801 18.4896 43.6328 18.8075 43.599 19.4886C43.563 20.5349 43.3986 21.0852 42.9415 21.8249C42.8399 21.977 42.7532 22.1387 42.6826 22.3075C42.6826 22.3435 43.0338 22.754 43.4684 23.2005C44.9704 24.7633 45.709 25.1624 46.8935 25.079C47.2808 25.0429 47.551 25.0564 47.551 25.1015C47.551 25.1962 46.7877 25.7938 46.4724 25.9585C46.3193 26.0397 46.2855 26.1231 46.308 26.299L46.4949 27.5325C46.6007 28.2384 46.6818 28.5654 46.7877 28.6601C47.0691 28.8946 48.5238 29.6478 49.4381 30.0222C50.6338 30.5048 51.2913 30.6806 52.2056 30.7618C53.3315 30.8565 53.354 30.8565 54.9731 30.7618V30.7663ZM45.2744 29.4742C45.2969 29.4381 45.2159 28.757 45.0627 27.97C44.8758 26.9011 44.77 26.5132 44.6529 26.4072C44.5718 26.3373 44.1372 26.0306 43.7026 25.7149C43.1316 25.3037 42.5906 24.8523 42.0836 24.3641L41.2752 23.5658L40.8406 23.7891L40.3834 24.0349C40.4219 24.2183 40.4848 24.3958 40.5703 24.5626C40.6987 24.8444 40.9576 25.5368 41.1446 26.1005C41.6377 27.5686 42.025 28.2745 42.9978 29.5531L43.3604 30.0357L44.0517 30.1417C44.439 30.2003 44.8263 30.2838 44.9321 30.3176C45.0965 30.3875 45.119 30.3537 45.1663 29.9771C45.1888 29.8124 45.2249 29.6365 45.2722 29.4719L45.2744 29.4742ZM60.1343 14.8634C60.7333 14.8047 60.8391 14.7213 60.5801 14.4529C60.4158 14.2883 60.0397 14.277 59.7357 14.4169C59.5353 14.5116 59.4903 14.4868 59.1727 14.1462C58.844 13.7832 58.8215 13.7696 58.4094 13.817C58.0333 13.8644 57.9748 13.8531 57.9275 13.6997C57.781 13.4478 57.599 13.2185 57.387 13.0187C57.1207 12.7156 56.7877 12.4786 56.4142 12.3264C55.6869 12.0445 55.2771 12.0806 54.5835 12.4685C52.5771 13.5599 52.6604 13.5486 50.7239 13.0548C48.9179 12.597 47.569 12.1279 47.1344 11.8325C46.7719 11.5867 45.9973 11.3161 45.351 11.2327C44.8691 11.1628 44.5651 11.2687 44.108 11.6431L43.8625 11.8438L44.0854 12.2317C44.3894 12.7729 44.3557 12.8067 43.8985 12.4076C43.4054 11.9971 42.8199 11.7153 42.4439 11.7017C42.1736 11.7017 41.3765 12.0535 41.2819 12.2069C41.2459 12.2542 41.4936 12.3129 41.8224 12.3354C42.1624 12.3715 42.6308 12.4888 42.9483 12.6173C43.7702 12.9691 44.1913 13.0864 44.9411 13.1585C45.7631 13.2397 47.2515 13.1472 47.4272 13.0052C47.5217 12.924 47.7785 12.9105 48.3189 12.9578C49.035 13.0052 49.3277 13.0751 51.0279 13.5329C52.0142 13.8035 52.7055 13.7787 53.8787 13.463C54.4191 13.3096 55.0992 13.1585 55.3807 13.1224C55.8625 13.0751 55.9549 13.0999 56.707 13.4404C57.9027 13.9816 58.5377 14.3221 58.889 14.6379C59.2403 14.9423 59.2876 14.9423 60.132 14.8724L60.1343 14.8634ZM53.4486 12.809L54.1647 12.4324L54.1421 11.704C54.1309 11.1988 54.1061 10.705 54.0836 10.2134L54.0251 9.4624L53.309 10.0149C52.8856 10.3441 52.4758 10.59 52.3001 10.626C51.7845 10.7207 49.2399 10.626 49.0035 10.4975C48.6885 10.2645 48.3939 10.0049 48.123 9.72174L47.4655 9.05198L47.4542 9.45113C47.4542 9.66311 47.4317 10.0262 47.3844 10.2494C47.3258 10.6734 47.3258 10.6847 47.783 11.2597C48.0284 11.5777 48.2288 11.8596 48.2288 11.8934C48.2288 12.1167 51.6178 13.1743 52.3812 13.1856C52.6267 13.1856 52.9329 13.0796 53.4486 12.809ZM52.0885 10.1412C52.9329 9.97657 53.3427 9.36543 53.6603 7.81618C53.989 6.14741 54.1534 3.52923 54.0003 2.41296C53.8584 1.40267 52.7325 0.956163 50.5865 1.02607C49.2489 1.07343 48.6972 1.20197 48.2401 1.58985C47.9586 1.82438 47.9586 1.84918 47.8303 2.9632C47.5961 5.10104 47.9473 8.14317 48.5576 9.282C48.8503 9.8345 49.1093 10.0329 49.6475 10.1277C50.2577 10.2336 51.5593 10.2336 52.0862 10.1389L52.0885 10.1412Z" fill="#1E1E1E"/>
<path d="M5.55 95.075C4.84 95.075 4.18 94.93 3.57 94.64C2.97 94.35 2.44 93.95 1.98 93.44C1.53 92.93 1.175 92.35 0.915 91.7C0.665 91.05 0.54 90.36 0.54 89.63C0.54 88.91 0.665 88.23 0.915 87.59C1.165 86.94 1.52 86.37 1.98 85.88C2.44 85.38 2.975 84.99 3.585 84.71C4.205 84.42 4.88 84.275 5.61 84.275C6.62 84.275 7.47 84.49 8.16 84.92C8.85 85.34 9.375 85.9 9.735 86.6L8.445 87.53C8.155 86.95 7.755 86.515 7.245 86.225C6.735 85.935 6.175 85.79 5.565 85.79C4.895 85.79 4.31 85.975 3.81 86.345C3.31 86.705 2.925 87.18 2.655 87.77C2.385 88.36 2.25 88.995 2.25 89.675C2.25 90.395 2.4 91.05 2.7 91.64C3 92.22 3.405 92.685 3.915 93.035C4.435 93.385 5.025 93.56 5.685 93.56C6.785 93.56 7.775 93.035 8.655 91.985V90.86H6.42V89.615H10.065V95H8.655V93.68C7.765 94.61 6.73 95.075 5.55 95.075ZM16.1813 88.58C15.5413 88.6 14.9713 88.75 14.4713 89.03C13.9813 89.3 13.6313 89.69 13.4213 90.2V95H11.7712V87.155H13.3013V88.91C13.5713 88.37 13.9263 87.94 14.3663 87.62C14.8063 87.29 15.2713 87.11 15.7613 87.08C15.8513 87.08 15.9313 87.08 16.0013 87.08C16.0713 87.08 16.1313 87.085 16.1813 87.095V88.58ZM20.8048 95.15C19.9948 95.15 19.2848 94.965 18.6748 94.595C18.0648 94.225 17.5898 93.735 17.2498 93.125C16.9098 92.505 16.7398 91.83 16.7398 91.1C16.7398 90.36 16.9098 89.68 17.2498 89.06C17.5898 88.44 18.0648 87.945 18.6748 87.575C19.2848 87.205 19.9998 87.02 20.8198 87.02C21.6398 87.02 22.3498 87.21 22.9498 87.59C23.5498 87.96 24.0098 88.45 24.3298 89.06C24.6598 89.67 24.8248 90.325 24.8248 91.025C24.8248 91.275 24.8098 91.475 24.7798 91.625H18.4948C18.5248 92.085 18.6498 92.49 18.8698 92.84C19.0998 93.18 19.3848 93.45 19.7248 93.65C20.0748 93.84 20.4548 93.935 20.8648 93.935C21.3048 93.935 21.7198 93.825 22.1098 93.605C22.4998 93.385 22.7698 93.095 22.9198 92.735L24.3298 93.14C24.0598 93.73 23.6098 94.215 22.9798 94.595C22.3598 94.965 21.6348 95.15 20.8048 95.15ZM18.4498 90.53H23.1898C23.1498 90.08 23.0198 89.685 22.7998 89.345C22.5798 88.995 22.2948 88.725 21.9448 88.535C21.6048 88.335 21.2248 88.235 20.8048 88.235C20.3948 88.235 20.0148 88.335 19.6648 88.535C19.3248 88.725 19.0448 88.995 18.8248 89.345C18.6048 89.685 18.4798 90.08 18.4498 90.53ZM29.7257 95.15C28.9157 95.15 28.2057 94.965 27.5957 94.595C26.9857 94.225 26.5107 93.735 26.1707 93.125C25.8307 92.505 25.6607 91.83 25.6607 91.1C25.6607 90.36 25.8307 89.68 26.1707 89.06C26.5107 88.44 26.9857 87.945 27.5957 87.575C28.2057 87.205 28.9207 87.02 29.7407 87.02C30.5607 87.02 31.2707 87.21 31.8707 87.59C32.4707 87.96 32.9307 88.45 33.2507 89.06C33.5807 89.67 33.7457 90.325 33.7457 91.025C33.7457 91.275 33.7307 91.475 33.7007 91.625H27.4157C27.4457 92.085 27.5707 92.49 27.7907 92.84C28.0207 93.18 28.3057 93.45 28.6457 93.65C28.9957 93.84 29.3757 93.935 29.7857 93.935C30.2257 93.935 30.6407 93.825 31.0307 93.605C31.4207 93.385 31.6907 93.095 31.8407 92.735L33.2507 93.14C32.9807 93.73 32.5307 94.215 31.9007 94.595C31.2807 94.965 30.5557 95.15 29.7257 95.15ZM27.3707 90.53H32.1107C32.0707 90.08 31.9407 89.685 31.7207 89.345C31.5007 88.995 31.2157 88.725 30.8657 88.535C30.5257 88.335 30.1457 88.235 29.7257 88.235C29.3157 88.235 28.9357 88.335 28.5857 88.535C28.2457 88.725 27.9657 88.995 27.7457 89.345C27.5257 89.685 27.4007 90.08 27.3707 90.53ZM42.1266 95H40.4766V90.605C40.4766 89.865 40.3566 89.33 40.1166 89C39.8866 88.66 39.5416 88.49 39.0816 88.49C38.7616 88.49 38.4416 88.57 38.1216 88.73C37.8116 88.89 37.5316 89.11 37.2816 89.39C37.0316 89.67 36.8516 89.985 36.7416 90.335V95H35.0916V87.155H36.5916V88.73C36.8916 88.21 37.3266 87.795 37.8966 87.485C38.4666 87.175 39.0966 87.02 39.7866 87.02C40.4066 87.02 40.8866 87.17 41.2266 87.47C41.5666 87.76 41.8016 88.145 41.9316 88.625C42.0616 89.105 42.1266 89.635 42.1266 90.215V95ZM50.5371 86.855C50.4071 86.705 50.1921 86.55 49.8921 86.39C49.6021 86.22 49.2621 86.075 48.8721 85.955C48.4821 85.835 48.0771 85.775 47.6571 85.775C46.9471 85.775 46.4221 85.905 46.0821 86.165C45.7521 86.425 45.5871 86.785 45.5871 87.245C45.5871 87.585 45.6821 87.855 45.8721 88.055C46.0621 88.245 46.3521 88.41 46.7421 88.55C47.1321 88.68 47.6221 88.815 48.2121 88.955C48.9321 89.125 49.5521 89.33 50.0721 89.57C50.6021 89.8 51.0071 90.11 51.2871 90.5C51.5771 90.89 51.7221 91.405 51.7221 92.045C51.7221 92.775 51.5471 93.365 51.1971 93.815C50.8471 94.265 50.3721 94.595 49.7721 94.805C49.1821 95.005 48.5321 95.105 47.8221 95.105C47.0121 95.105 46.2271 94.98 45.4671 94.73C44.7071 94.48 44.0271 94.125 43.4271 93.665L44.1921 92.225C44.3621 92.395 44.6321 92.59 45.0021 92.81C45.3721 93.02 45.8021 93.205 46.2921 93.365C46.7921 93.515 47.3121 93.59 47.8521 93.59C48.5121 93.59 49.0221 93.475 49.3821 93.245C49.7421 93.005 49.9221 92.665 49.9221 92.225C49.9221 91.865 49.8021 91.58 49.5621 91.37C49.3321 91.15 48.9971 90.97 48.5571 90.83C48.1271 90.68 47.6071 90.525 46.9971 90.365C46.2971 90.185 45.7121 89.98 45.2421 89.75C44.7721 89.52 44.4171 89.23 44.1771 88.88C43.9471 88.53 43.8321 88.075 43.8321 87.515C43.8321 86.815 44.0021 86.225 44.3421 85.745C44.6821 85.255 45.1421 84.89 45.7221 84.65C46.3121 84.4 46.9721 84.275 47.7021 84.275C48.4221 84.275 49.0871 84.39 49.6971 84.62C50.3071 84.85 50.8421 85.135 51.3021 85.475L50.5371 86.855ZM56.722 95.15C55.902 95.15 55.187 94.965 54.577 94.595C53.977 94.215 53.512 93.72 53.182 93.11C52.852 92.49 52.687 91.815 52.687 91.085C52.687 90.355 52.852 89.685 53.182 89.075C53.522 88.455 53.992 87.96 54.592 87.59C55.202 87.21 55.912 87.02 56.722 87.02C57.532 87.02 58.237 87.21 58.837 87.59C59.447 87.96 59.917 88.455 60.247 89.075C60.587 89.685 60.757 90.355 60.757 91.085C60.757 91.815 60.592 92.49 60.262 93.11C59.932 93.72 59.462 94.215 58.852 94.595C58.252 94.965 57.542 95.15 56.722 95.15ZM54.382 91.1C54.382 91.6 54.487 92.05 54.697 92.45C54.907 92.85 55.187 93.165 55.537 93.395C55.887 93.625 56.282 93.74 56.722 93.74C57.152 93.74 57.542 93.625 57.892 93.395C58.252 93.155 58.537 92.835 58.747 92.435C58.957 92.035 59.062 91.585 59.062 91.085C59.062 90.585 58.957 90.135 58.747 89.735C58.537 89.335 58.252 89.02 57.892 88.79C57.542 88.55 57.152 88.43 56.722 88.43C56.292 88.43 55.897 88.55 55.537 88.79C55.187 89.02 54.907 89.34 54.697 89.75C54.487 90.15 54.382 90.6 54.382 91.1ZM65.7755 95.15C64.9655 95.15 64.2555 94.965 63.6455 94.595C63.0355 94.215 62.5605 93.715 62.2205 93.095C61.8805 92.475 61.7105 91.8 61.7105 91.07C61.7105 90.34 61.8755 89.67 62.2055 89.06C62.5455 88.44 63.0155 87.945 63.6155 87.575C64.2255 87.205 64.9455 87.02 65.7755 87.02C66.5855 87.02 67.2805 87.2 67.8605 87.56C68.4505 87.91 68.8905 88.38 69.1805 88.97L67.5755 89.48C67.3955 89.15 67.1405 88.895 66.8105 88.715C66.4905 88.525 66.1355 88.43 65.7455 88.43C65.3055 88.43 64.9055 88.545 64.5455 88.775C64.1955 88.995 63.9155 89.305 63.7055 89.705C63.5055 90.105 63.4055 90.56 63.4055 91.07C63.4055 91.58 63.5105 92.035 63.7205 92.435C63.9405 92.835 64.2255 93.155 64.5755 93.395C64.9355 93.625 65.3305 93.74 65.7605 93.74C66.1605 93.74 66.5405 93.635 66.9005 93.425C67.2605 93.215 67.5005 92.96 67.6205 92.66L69.2405 93.14C68.9805 93.73 68.5455 94.215 67.9355 94.595C67.3255 94.965 66.6055 95.15 65.7755 95.15ZM76.0594 95L73.5394 91.385L72.2494 92.615V95H70.5994V84.05H72.2494V90.95L75.8794 87.17H77.6494L74.6044 90.455L77.8144 95H76.0594Z" fill="#1E1E1E"/>
</svg>
