<svg width="64" height="100" viewBox="0 0 64 100" fill="none" xmlns="http://www.w3.org/2000/svg">
<path d="M0 0L5.82437 64.8L31.9614 72L58.1666 64.791L64 0H0.00453632H0ZM51.3216 21.195H20.6665L21.3968 29.3355H50.5958L48.3958 53.7345L31.9614 58.2525L15.5498 53.7345L14.4294 41.2515H22.4719L23.0434 47.5965L31.966 49.9815L31.9841 49.977L40.9112 47.5875L41.8366 37.2825H14.071L11.9118 13.248H52.0428L51.3261 21.195H51.3216Z" fill="#1E1E1E"/>
<path d="M15.74 84.5V95H13.79V90.5H8.36V95H6.41V84.5H8.36V88.835H13.79V84.5H15.74ZM20.6836 86.15H17.2036V84.5H26.1136V86.15H22.6336V95H20.6836V86.15ZM37.222 95L37.207 88.04L33.757 93.8H32.887L29.437 88.13V95H27.577V84.5H29.182L33.352 91.46L37.447 84.5H39.052L39.067 95H37.222ZM41.9032 84.5H43.8532V93.35H49.3432V95H41.9032V84.5ZM53.4177 88.565C54.8977 88.565 55.9927 88.855 56.7027 89.435C57.4127 90.005 57.7677 90.785 57.7677 91.775C57.7677 92.405 57.6127 92.975 57.3027 93.485C56.9927 93.995 56.5277 94.4 55.9077 94.7C55.2877 95 54.5227 95.15 53.6127 95.15C52.8627 95.15 52.1377 95.045 51.4377 94.835C50.7377 94.615 50.1477 94.315 49.6677 93.935L50.4927 92.42C50.8827 92.74 51.3477 92.995 51.8877 93.185C52.4377 93.365 53.0027 93.455 53.5827 93.455C54.2727 93.455 54.8127 93.315 55.2027 93.035C55.6027 92.745 55.8027 92.35 55.8027 91.85C55.8027 91.31 55.5877 90.905 55.1577 90.635C54.7377 90.355 54.0127 90.215 52.9827 90.215H50.4477L50.9877 84.5H57.1527V86.135H52.6377L52.4127 88.565H53.4177Z" fill="#1E1E1E"/>
</svg>
