<svg width="74" height="100" viewBox="0 0 74 100" fill="none" xmlns="http://www.w3.org/2000/svg">
<path d="M1 0H73V72H1V0ZM67.105 54.8325C66.5785 51.5385 64.432 48.7845 58.0938 46.2083C55.891 45.1777 53.4295 44.451 52.7028 42.786C52.4328 41.8005 52.3855 41.2627 52.561 40.6755C53.0177 38.7292 55.3037 38.1555 57.1082 38.6955C58.2805 39.0578 59.3582 39.9487 60.0378 41.391C63.1427 39.3638 63.1427 39.3638 65.3005 38.016C64.4927 36.7627 64.0945 36.2115 63.5433 35.685C61.6555 33.5632 59.1377 32.4855 55.0472 32.58L52.9255 32.85C50.8982 33.3428 48.9655 34.4205 47.7933 35.8628C44.3823 39.7305 45.3677 46.4805 49.5033 49.2817C53.5938 52.3395 59.581 53.0077 60.355 55.8923C61.0705 59.409 57.7427 60.534 54.4487 60.1223C52.0232 59.5823 50.6755 58.365 49.186 56.115L43.7005 59.2673C44.3215 60.7095 45.0482 61.3305 46.126 62.595C51.3415 67.8577 64.396 67.5878 66.7383 59.5823C66.8192 59.3123 67.4538 57.4605 66.961 54.6368L67.105 54.8325ZM40.1522 33.093H33.4135C33.4135 38.9048 33.3775 44.6828 33.3775 50.508C33.3775 54.2002 33.5643 57.5977 32.968 58.6418C31.9713 60.705 29.4288 60.4463 28.2678 60.084C27.0843 59.499 26.4745 58.689 25.7838 57.5168C25.5835 57.1995 25.444 56.9317 25.3968 56.9317L19.9248 60.3067C20.8383 62.1945 22.1747 63.8235 23.8983 64.854C26.4655 66.3885 29.9102 66.8812 33.5192 66.0735C35.8638 65.394 37.891 63.999 38.944 61.8435C40.4785 59.0535 40.15 55.6335 40.1388 51.7995C40.1748 45.6345 40.1388 39.4717 40.1388 33.2595L40.1522 33.093Z" fill="#1E1E1E"/>
<path d="M0.555 93.125C0.715 93.235 0.96 93.35 1.29 93.47C1.62 93.59 2.01 93.65 2.46 93.65C3.05 93.65 3.495 93.525 3.795 93.275C4.095 93.015 4.295 92.615 4.395 92.075C4.495 91.535 4.545 90.845 4.545 90.005V84.35H6.24V89.765C6.24 90.565 6.195 91.295 6.105 91.955C6.025 92.615 5.86 93.185 5.61 93.665C5.36 94.145 4.985 94.515 4.485 94.775C3.995 95.035 3.335 95.165 2.505 95.165C2.005 95.165 1.565 95.11 1.185 95C0.805 94.89 0.46 94.725 0.15 94.505L0.555 93.125ZM7.61238 92.705C7.61238 92.205 7.75238 91.77 8.03238 91.4C8.31238 91.02 8.70238 90.73 9.20238 90.53C9.71238 90.32 10.2974 90.215 10.9574 90.215C11.3074 90.215 11.6624 90.245 12.0224 90.305C12.3924 90.355 12.7174 90.43 12.9974 90.53V90.035C12.9974 89.485 12.8324 89.055 12.5024 88.745C12.1724 88.435 11.6974 88.28 11.0774 88.28C10.6474 88.28 10.2324 88.355 9.83238 88.505C9.43238 88.655 9.01738 88.875 8.58738 89.165L8.03238 88.055C8.55238 87.715 9.07238 87.46 9.59238 87.29C10.1224 87.11 10.6774 87.02 11.2574 87.02C12.3074 87.02 13.1324 87.3 13.7324 87.86C14.3424 88.41 14.6474 89.195 14.6474 90.215V93.14C14.6474 93.33 14.6774 93.465 14.7374 93.545C14.8074 93.625 14.9224 93.67 15.0824 93.68V95C14.9324 95.03 14.7974 95.05 14.6774 95.06C14.5574 95.07 14.4574 95.075 14.3774 95.075C14.0174 95.075 13.7474 94.99 13.5674 94.82C13.3974 94.64 13.2974 94.44 13.2674 94.22L13.2224 93.77C12.8824 94.21 12.4474 94.55 11.9174 94.79C11.3874 95.03 10.8524 95.15 10.3124 95.15C9.79238 95.15 9.32738 95.045 8.91738 94.835C8.50738 94.615 8.18738 94.32 7.95738 93.95C7.72738 93.58 7.61238 93.165 7.61238 92.705ZM12.6074 93.185C12.8674 92.925 12.9974 92.68 12.9974 92.45V91.55C12.4074 91.33 11.8074 91.22 11.1974 91.22C10.5974 91.22 10.1074 91.345 9.72738 91.595C9.35738 91.835 9.17238 92.16 9.17238 92.57C9.17238 92.91 9.30738 93.225 9.57738 93.515C9.85738 93.795 10.2574 93.935 10.7774 93.935C11.1274 93.935 11.4674 93.865 11.7974 93.725C12.1274 93.585 12.3974 93.405 12.6074 93.185ZM18.5755 95L15.5905 87.155H17.3005L19.5355 93.47L21.7705 87.155H23.3605L20.3755 95H18.5755ZM23.7843 92.705C23.7843 92.205 23.9243 91.77 24.2043 91.4C24.4843 91.02 24.8743 90.73 25.3743 90.53C25.8843 90.32 26.4693 90.215 27.1293 90.215C27.4793 90.215 27.8343 90.245 28.1943 90.305C28.5643 90.355 28.8893 90.43 29.1693 90.53V90.035C29.1693 89.485 29.0043 89.055 28.6743 88.745C28.3443 88.435 27.8693 88.28 27.2493 88.28C26.8193 88.28 26.4043 88.355 26.0043 88.505C25.6043 88.655 25.1893 88.875 24.7593 89.165L24.2043 88.055C24.7243 87.715 25.2443 87.46 25.7643 87.29C26.2943 87.11 26.8493 87.02 27.4293 87.02C28.4793 87.02 29.3043 87.3 29.9043 87.86C30.5143 88.41 30.8193 89.195 30.8193 90.215V93.14C30.8193 93.33 30.8493 93.465 30.9093 93.545C30.9793 93.625 31.0943 93.67 31.2543 93.68V95C31.1043 95.03 30.9693 95.05 30.8493 95.06C30.7293 95.07 30.6293 95.075 30.5493 95.075C30.1893 95.075 29.9193 94.99 29.7393 94.82C29.5693 94.64 29.4693 94.44 29.4393 94.22L29.3943 93.77C29.0543 94.21 28.6193 94.55 28.0893 94.79C27.5593 95.03 27.0243 95.15 26.4843 95.15C25.9643 95.15 25.4993 95.045 25.0893 94.835C24.6793 94.615 24.3593 94.32 24.1293 93.95C23.8993 93.58 23.7843 93.165 23.7843 92.705ZM28.7793 93.185C29.0393 92.925 29.1693 92.68 29.1693 92.45V91.55C28.5793 91.33 27.9793 91.22 27.3693 91.22C26.7693 91.22 26.2793 91.345 25.8993 91.595C25.5293 91.835 25.3443 92.16 25.3443 92.57C25.3443 92.91 25.4793 93.225 25.7493 93.515C26.0293 93.795 26.4293 93.935 26.9493 93.935C27.2993 93.935 27.6393 93.865 27.9693 93.725C28.2993 93.585 28.5693 93.405 28.7793 93.185ZM39.3311 86.855C39.2011 86.705 38.9861 86.55 38.6861 86.39C38.3961 86.22 38.0561 86.075 37.6661 85.955C37.2761 85.835 36.8711 85.775 36.4511 85.775C35.7411 85.775 35.2161 85.905 34.8761 86.165C34.5461 86.425 34.3811 86.785 34.3811 87.245C34.3811 87.585 34.4761 87.855 34.6661 88.055C34.8561 88.245 35.1461 88.41 35.5361 88.55C35.9261 88.68 36.4161 88.815 37.0061 88.955C37.7261 89.125 38.3461 89.33 38.8661 89.57C39.3961 89.8 39.8011 90.11 40.0811 90.5C40.3711 90.89 40.5161 91.405 40.5161 92.045C40.5161 92.775 40.3411 93.365 39.9911 93.815C39.6411 94.265 39.1661 94.595 38.5661 94.805C37.9761 95.005 37.3261 95.105 36.6161 95.105C35.8061 95.105 35.0211 94.98 34.2611 94.73C33.5011 94.48 32.8211 94.125 32.2211 93.665L32.9861 92.225C33.1561 92.395 33.4261 92.59 33.7961 92.81C34.1661 93.02 34.5961 93.205 35.0861 93.365C35.5861 93.515 36.1061 93.59 36.6461 93.59C37.3061 93.59 37.8161 93.475 38.1761 93.245C38.5361 93.005 38.7161 92.665 38.7161 92.225C38.7161 91.865 38.5961 91.58 38.3561 91.37C38.1261 91.15 37.7911 90.97 37.3511 90.83C36.9211 90.68 36.4011 90.525 35.7911 90.365C35.0911 90.185 34.5061 89.98 34.0361 89.75C33.5661 89.52 33.2111 89.23 32.9711 88.88C32.7411 88.53 32.6261 88.075 32.6261 87.515C32.6261 86.815 32.7961 86.225 33.1361 85.745C33.4761 85.255 33.9361 84.89 34.5161 84.65C35.1061 84.4 35.7661 84.275 36.4961 84.275C37.2161 84.275 37.8811 84.39 38.4911 84.62C39.1011 84.85 39.6361 85.135 40.0961 85.475L39.3311 86.855ZM45.546 95.15C44.736 95.15 44.026 94.965 43.416 94.595C42.806 94.215 42.331 93.715 41.991 93.095C41.651 92.475 41.481 91.8 41.481 91.07C41.481 90.34 41.646 89.67 41.976 89.06C42.316 88.44 42.786 87.945 43.386 87.575C43.996 87.205 44.716 87.02 45.546 87.02C46.356 87.02 47.051 87.2 47.631 87.56C48.221 87.91 48.661 88.38 48.951 88.97L47.346 89.48C47.166 89.15 46.911 88.895 46.581 88.715C46.261 88.525 45.906 88.43 45.516 88.43C45.076 88.43 44.676 88.545 44.316 88.775C43.966 88.995 43.686 89.305 43.476 89.705C43.276 90.105 43.176 90.56 43.176 91.07C43.176 91.58 43.281 92.035 43.491 92.435C43.711 92.835 43.996 93.155 44.346 93.395C44.706 93.625 45.101 93.74 45.531 93.74C45.931 93.74 46.311 93.635 46.671 93.425C47.031 93.215 47.271 92.96 47.391 92.66L49.011 93.14C48.751 93.73 48.316 94.215 47.706 94.595C47.096 94.965 46.376 95.15 45.546 95.15ZM54.7799 88.58C54.1399 88.6 53.5699 88.75 53.0699 89.03C52.5799 89.3 52.2299 89.69 52.0199 90.2V95H50.3699V87.155H51.8999V88.91C52.1699 88.37 52.5249 87.94 52.9649 87.62C53.4049 87.29 53.8699 87.11 54.3599 87.08C54.4499 87.08 54.5299 87.08 54.5999 87.08C54.6699 87.08 54.7299 87.085 54.7799 87.095V88.58ZM55.9802 85.865V84.05H57.6302V85.865H55.9802ZM55.9802 95V87.155H57.6302V95H55.9802ZM64.068 95.15C63.438 95.15 62.883 95 62.403 94.7C61.923 94.4 61.543 94.01 61.263 93.53V98.195H59.613V87.155H61.068V88.565C61.368 88.095 61.758 87.72 62.238 87.44C62.718 87.16 63.253 87.02 63.843 87.02C64.563 87.02 65.198 87.21 65.748 87.59C66.308 87.96 66.748 88.455 67.068 89.075C67.388 89.685 67.548 90.35 67.548 91.07C67.548 91.83 67.398 92.52 67.098 93.14C66.798 93.75 66.388 94.24 65.868 94.61C65.348 94.97 64.748 95.15 64.068 95.15ZM63.528 93.74C63.998 93.74 64.403 93.615 64.743 93.365C65.093 93.105 65.363 92.775 65.553 92.375C65.753 91.965 65.853 91.53 65.853 91.07C65.853 90.59 65.743 90.15 65.523 89.75C65.313 89.35 65.023 89.03 64.653 88.79C64.293 88.55 63.878 88.43 63.408 88.43C63.128 88.43 62.833 88.5 62.523 88.64C62.223 88.78 61.958 88.965 61.728 89.195C61.498 89.425 61.343 89.685 61.263 89.975V92.03C61.463 92.51 61.768 92.915 62.178 93.245C62.598 93.575 63.048 93.74 63.528 93.74ZM73.2798 94.595C73.0698 94.695 72.7798 94.81 72.4098 94.94C72.0398 95.06 71.6448 95.12 71.2248 95.12C70.7048 95.12 70.2548 94.98 69.8748 94.7C69.5048 94.42 69.3198 93.965 69.3198 93.335V88.43H68.2848V87.155H69.3198V84.575H70.9698V87.155H72.6798V88.43H70.9698V92.81C70.9898 93.09 71.0748 93.295 71.2248 93.425C71.3848 93.545 71.5798 93.605 71.8098 93.605C72.0398 93.605 72.2598 93.565 72.4698 93.485C72.6798 93.405 72.8348 93.34 72.9348 93.29L73.2798 94.595Z" fill="#1E1E1E"/>
</svg>
