<svg width="72" height="100" viewBox="0 0 72 100" fill="none" xmlns="http://www.w3.org/2000/svg">
<path d="M50.8067 25.526C51.1465 25.6998 51.4615 25.9345 51.718 26.219L58.7636 23.0677L52.1906 16.5305L50.7122 25.4312L50.8067 25.526ZM36.1799 19.5869C36.5309 20.1038 36.7402 20.6907 36.8122 21.3138L47.3008 25.772C47.6158 25.526 47.9781 25.3476 48.3651 25.2415L50.0866 14.553L43.6981 7.82844L36.1754 19.4199L36.1799 19.5869ZM71.9818 36.1061L60.7416 24.8307L53.0885 27.9707L71.8895 35.9887C71.8895 35.9887 72.0538 36.1061 71.9818 36.1061ZM70.1073 37.9413L52.0601 30.2032C51.8089 30.5368 51.4938 30.8166 51.1332 31.0264C50.7727 31.2361 50.374 31.3714 49.9606 31.4244L48.0276 43.3363C48.6014 43.9233 48.93 44.7111 48.93 45.5327L59.828 47.8262L69.826 37.8668V37.6795L70.1073 37.9413ZM46.1981 27.7223L36.4027 23.535C36.0657 24.0551 35.6004 24.4789 35.052 24.7653C34.5035 25.0516 33.8905 25.1908 33.2725 25.1693H32.6762L24.555 37.7382L46.2364 28.3205V28.3454C46.2251 28.177 46.2251 28.0081 46.2364 27.8397C46.2476 27.8036 46.2364 27.7585 46.2004 27.7223H46.1981ZM58.1066 49.7224L48.5204 47.7336C48.1643 48.2016 47.685 48.5604 47.1365 48.7698L44.8502 62.9842L58.1651 49.7449C58.1651 49.7449 58.1403 49.8172 58.1043 49.8172L58.1066 49.7224ZM44.6972 48.7427C44.2431 48.5563 43.8389 48.2655 43.5173 47.8938C43.1956 47.5222 42.9654 47.0799 42.8452 46.6027L24.996 42.9255L24.7373 43.3386L40.937 66.8397L41.9091 65.8758L44.6634 48.8036C44.6634 48.8036 44.7557 48.8736 44.6972 48.8397V48.7427ZM25.3718 40.7607L43.0117 44.4063C43.2647 43.9615 43.6223 43.5856 44.0534 43.3114C44.4844 43.0371 44.9759 42.8729 45.4848 42.833L47.3953 31.1219L46.9835 30.7698L25.0568 40.1986C25.1738 40.3725 25.2796 40.5621 25.3718 40.7607ZM17.9752 43.7111L17.5994 43.3386L9.99346 46.474L13.6839 50.1558L17.8807 43.6185L17.9752 43.7111ZM22.9933 44.912C22.463 45.1516 21.8894 45.2799 21.3078 45.2889C20.8375 45.2889 20.392 45.2167 19.9464 45.0655L15.3176 51.8262L35.6173 72L39.1908 68.4357L22.9933 44.912ZM20.1444 36.9639C20.4482 36.93 20.7655 36.93 21.0806 36.9639C21.4226 36.9187 21.7736 36.9187 22.1134 36.9639L30.3157 24.1716C29.6768 23.5046 29.3196 22.6157 29.3188 21.6907C29.2851 21.4179 29.2851 21.1419 29.3188 20.8691L19.3569 16.2483L11.3391 24.0767L20.1444 36.9639ZM21.0491 14.684L30.7635 18.8352C31.4651 18.2474 32.3592 17.9418 33.2725 17.9774C33.6708 17.9887 34.0669 18.0474 34.4539 18.1648L42.0396 6.2912L35.7681 0L21.0491 14.4944C21.0491 14.4944 21.0243 14.6479 21.0491 14.684ZM17.4149 39.2573C17.6129 38.8939 17.8582 38.5531 18.1417 38.2461L9.83144 25.8059L0 35.3883L17.4149 39.2573ZM16.6295 41.3612L1.59094 38.2099L8.2 44.9368L16.535 41.386L16.6295 41.3612Z" fill="#1E1E1E"/>
<path d="M14.88 87.47V95H13.2V84.35H14.58L20.61 92.045V84.365H22.305V95H20.835L14.88 87.47ZM27.9122 95.15C27.1022 95.15 26.3922 94.965 25.7822 94.595C25.1722 94.225 24.6972 93.735 24.3572 93.125C24.0172 92.505 23.8472 91.83 23.8472 91.1C23.8472 90.36 24.0172 89.68 24.3572 89.06C24.6972 88.44 25.1722 87.945 25.7822 87.575C26.3922 87.205 27.1072 87.02 27.9272 87.02C28.7472 87.02 29.4572 87.21 30.0572 87.59C30.6572 87.96 31.1172 88.45 31.4372 89.06C31.7672 89.67 31.9322 90.325 31.9322 91.025C31.9322 91.275 31.9172 91.475 31.8872 91.625H25.6022C25.6322 92.085 25.7572 92.49 25.9772 92.84C26.2072 93.18 26.4922 93.45 26.8322 93.65C27.1822 93.84 27.5622 93.935 27.9722 93.935C28.4122 93.935 28.8272 93.825 29.2172 93.605C29.6072 93.385 29.8772 93.095 30.0272 92.735L31.4372 93.14C31.1672 93.73 30.7172 94.215 30.0872 94.595C29.4672 94.965 28.7422 95.15 27.9122 95.15ZM25.5572 90.53H30.2972C30.2572 90.08 30.1272 89.685 29.9072 89.345C29.6872 88.995 29.4022 88.725 29.0522 88.535C28.7122 88.335 28.3322 88.235 27.9122 88.235C27.5022 88.235 27.1222 88.335 26.7722 88.535C26.4322 88.725 26.1522 88.995 25.9322 89.345C25.7122 89.685 25.5872 90.08 25.5572 90.53ZM37.5698 94.595C37.3598 94.695 37.0698 94.81 36.6998 94.94C36.3298 95.06 35.9348 95.12 35.5148 95.12C34.9948 95.12 34.5448 94.98 34.1648 94.7C33.7948 94.42 33.6098 93.965 33.6098 93.335V88.43H32.5748V87.155H33.6098V84.575H35.2598V87.155H36.9698V88.43H35.2598V92.81C35.2798 93.09 35.3648 93.295 35.5148 93.425C35.6748 93.545 35.8698 93.605 36.0998 93.605C36.3298 93.605 36.5498 93.565 36.7598 93.485C36.9698 93.405 37.1248 93.34 37.2248 93.29L37.5698 94.595ZM38.7277 84.05H40.3777V92.735C40.3777 93.135 40.4377 93.39 40.5577 93.5C40.6777 93.61 40.8277 93.665 41.0077 93.665C41.2077 93.665 41.3977 93.645 41.5777 93.605C41.7577 93.565 41.9077 93.515 42.0277 93.455L42.2677 94.76C42.0277 94.86 41.7427 94.945 41.4127 95.015C41.0827 95.085 40.7877 95.12 40.5277 95.12C39.9677 95.12 39.5277 94.965 39.2077 94.655C38.8877 94.335 38.7277 93.895 38.7277 93.335V84.05ZM43.2244 85.865V84.05H44.8744V85.865H43.2244ZM43.2244 95V87.155H44.8744V95H43.2244ZM47.3072 95V88.625H46.2572V87.35H47.3072V87.035C47.3072 86.075 47.5322 85.315 47.9822 84.755C48.4422 84.185 49.0522 83.9 49.8122 83.9C50.4522 83.9 51.0622 84.06 51.6422 84.38L51.2822 85.61C51.1322 85.52 50.9522 85.445 50.7422 85.385C50.5422 85.325 50.3472 85.295 50.1572 85.295C49.7672 85.295 49.4672 85.44 49.2572 85.73C49.0572 86.02 48.9572 86.44 48.9572 86.99V87.35H50.9672V88.625H48.9572V95H47.3072ZM52.4739 96.845C52.6239 96.875 52.7689 96.9 52.9089 96.92C53.0589 96.94 53.1789 96.95 53.2689 96.95C53.4389 96.95 53.5839 96.895 53.7039 96.785C53.8339 96.685 53.9639 96.495 54.0939 96.215C54.2239 95.935 54.3839 95.53 54.5739 95L51.3489 87.155H53.0739L55.4739 93.32L57.6039 87.155H59.1939L55.6389 96.815C55.4789 97.255 55.1989 97.63 54.7989 97.94C54.4089 98.25 53.9039 98.405 53.2839 98.405C53.1639 98.405 53.0389 98.395 52.9089 98.375C52.7789 98.355 52.6339 98.325 52.4739 98.285V96.845Z" fill="#1E1E1E"/>
</svg>
