<svg width="64" height="100" viewBox="0 0 64 100" fill="none" xmlns="http://www.w3.org/2000/svg">
<path d="M31.9946 72C31.0013 72 30.073 71.7332 29.2062 71.2717L20.3966 66.0506C19.0783 65.3187 19.7393 65.0518 20.1366 64.9184C21.9281 64.3235 22.2604 64.1937 24.1133 63.1408C24.3156 63.0074 24.5793 63.0687 24.7815 63.2021L31.5359 67.2405C31.8032 67.3703 32.1354 67.3703 32.3341 67.2405L58.7699 51.9632C59.0372 51.8334 59.1672 51.5666 59.1672 51.2349V20.738C59.1672 20.4099 59.0372 20.143 58.7699 20.0132L32.3341 4.80085C32.0704 4.66744 31.7381 4.66744 31.5359 4.80085L5.09284 20.0096C4.82917 20.1394 4.69552 20.4748 4.69552 20.7344V51.2277C4.69552 51.4909 4.82917 51.8262 5.09284 51.956L12.3167 56.1278C16.2248 58.1037 18.681 55.7852 18.681 53.4776V23.3846C18.681 22.9879 19.0097 22.5877 19.4756 22.5877H22.8564C23.2465 22.5877 23.651 22.9194 23.651 23.3846V53.4812C23.651 58.7058 20.8048 61.7526 15.8348 61.7526C14.3105 61.7526 13.1186 61.7526 9.73779 60.094L2.78481 56.1314C1.93766 55.6398 1.2346 54.9348 0.745909 54.0869C0.25722 53.239 1.39176e-05 52.278 0 51.2998V20.8029C0 18.8198 1.0583 16.9664 2.78481 15.9749L29.2098 0.697584C30.0676 0.239609 31.0254 0 31.9982 0C32.971 0 33.9288 0.239609 34.7866 0.697584L61.2152 15.9749C62.9453 16.9628 64 18.8198 64 20.8029V51.2998C64 53.2793 62.9417 55.1326 61.2152 56.1314L34.7866 71.4051C33.9161 71.8017 32.9229 72 31.9946 72ZM40.1431 51.0293C28.5488 51.0293 26.1649 45.7362 26.1649 41.2435C26.1649 40.8469 26.4972 40.4467 26.9595 40.4467H30.4053C30.8026 40.4467 31.1313 40.7099 31.1313 41.1101C31.6623 44.6112 33.1829 46.3347 40.2118 46.3347C45.7741 46.3347 48.1652 45.0728 48.1652 42.0981C48.1652 40.3781 47.497 39.1234 38.8212 38.2652C31.6009 37.5441 27.0968 35.9468 27.0968 30.1957C27.0968 24.8412 31.6009 21.6646 39.1571 21.6646C47.6343 21.6646 51.8097 24.5816 52.337 30.924C52.3307 31.1381 52.2603 31.3453 52.1348 31.519C52.0011 31.6488 51.8061 31.7822 51.6074 31.7822H48.1652C47.9951 31.7786 47.831 31.7185 47.6989 31.6114C47.5668 31.5043 47.4741 31.3563 47.4356 31.1909C46.6374 27.5419 44.5858 26.3592 39.1571 26.3592C33.0565 26.3592 32.3269 28.4758 32.3269 30.0623C32.3269 31.9769 33.1829 32.5718 41.4073 33.6319C49.5558 34.6884 53.399 36.21 53.399 41.9033C53.3267 47.7265 48.5626 51.0293 40.1431 51.0293Z" fill="#1E1E1E"/>
<path d="M6.88 87.47V95H5.2V84.35H6.58L12.61 92.045V84.365H14.305V95H12.835L6.88 87.47ZM19.8822 95.15C19.0622 95.15 18.3472 94.965 17.7372 94.595C17.1372 94.215 16.6722 93.72 16.3422 93.11C16.0122 92.49 15.8472 91.815 15.8472 91.085C15.8472 90.355 16.0122 89.685 16.3422 89.075C16.6822 88.455 17.1522 87.96 17.7522 87.59C18.3622 87.21 19.0722 87.02 19.8822 87.02C20.6922 87.02 21.3972 87.21 21.9972 87.59C22.6072 87.96 23.0772 88.455 23.4072 89.075C23.7472 89.685 23.9172 90.355 23.9172 91.085C23.9172 91.815 23.7522 92.49 23.4222 93.11C23.0922 93.72 22.6222 94.215 22.0122 94.595C21.4122 94.965 20.7022 95.15 19.8822 95.15ZM17.5422 91.1C17.5422 91.6 17.6472 92.05 17.8572 92.45C18.0672 92.85 18.3472 93.165 18.6972 93.395C19.0472 93.625 19.4422 93.74 19.8822 93.74C20.3122 93.74 20.7022 93.625 21.0522 93.395C21.4122 93.155 21.6972 92.835 21.9072 92.435C22.1172 92.035 22.2222 91.585 22.2222 91.085C22.2222 90.585 22.1172 90.135 21.9072 89.735C21.6972 89.335 21.4122 89.02 21.0522 88.79C20.7022 88.55 20.3122 88.43 19.8822 88.43C19.4522 88.43 19.0572 88.55 18.6972 88.79C18.3472 89.02 18.0672 89.34 17.8572 89.75C17.6472 90.15 17.5422 90.6 17.5422 91.1ZM24.8856 91.085C24.8856 90.335 25.0356 89.655 25.3356 89.045C25.6456 88.425 26.0656 87.935 26.5956 87.575C27.1256 87.205 27.7356 87.02 28.4256 87.02C29.0256 87.02 29.5656 87.175 30.0456 87.485C30.5356 87.795 30.9156 88.18 31.1856 88.64V84.05H32.8356V93.14C32.8356 93.33 32.8706 93.465 32.9406 93.545C33.0106 93.625 33.1256 93.67 33.2856 93.68V95C32.9756 95.05 32.7356 95.075 32.5656 95.075C32.2556 95.075 31.9906 94.99 31.7706 94.82C31.5606 94.64 31.4506 94.42 31.4406 94.16L31.4256 93.575C31.1256 94.075 30.7206 94.465 30.2106 94.745C29.7006 95.015 29.1706 95.15 28.6206 95.15C27.9006 95.15 27.2556 94.965 26.6856 94.595C26.1256 94.225 25.6856 93.735 25.3656 93.125C25.0456 92.505 24.8856 91.825 24.8856 91.085ZM31.1856 92.18V90.125C31.0656 89.805 30.8856 89.52 30.6456 89.27C30.4056 89.01 30.1306 88.805 29.8206 88.655C29.5206 88.505 29.2206 88.43 28.9206 88.43C28.4506 88.43 28.0406 88.56 27.6906 88.82C27.3506 89.07 27.0806 89.4 26.8806 89.81C26.6906 90.22 26.5956 90.655 26.5956 91.115C26.5956 91.595 26.7006 92.035 26.9106 92.435C27.1306 92.835 27.4256 93.155 27.7956 93.395C28.1656 93.625 28.5806 93.74 29.0406 93.74C29.3206 93.74 29.6106 93.675 29.9106 93.545C30.2206 93.405 30.4906 93.22 30.7206 92.99C30.9506 92.75 31.1056 92.48 31.1856 92.18ZM38.4864 95.15C37.6764 95.15 36.9664 94.965 36.3564 94.595C35.7464 94.225 35.2714 93.735 34.9314 93.125C34.5914 92.505 34.4214 91.83 34.4214 91.1C34.4214 90.36 34.5914 89.68 34.9314 89.06C35.2714 88.44 35.7464 87.945 36.3564 87.575C36.9664 87.205 37.6814 87.02 38.5014 87.02C39.3214 87.02 40.0314 87.21 40.6314 87.59C41.2314 87.96 41.6914 88.45 42.0114 89.06C42.3414 89.67 42.5064 90.325 42.5064 91.025C42.5064 91.275 42.4914 91.475 42.4614 91.625H36.1764C36.2064 92.085 36.3314 92.49 36.5514 92.84C36.7814 93.18 37.0664 93.45 37.4064 93.65C37.7564 93.84 38.1364 93.935 38.5464 93.935C38.9864 93.935 39.4014 93.825 39.7914 93.605C40.1814 93.385 40.4514 93.095 40.6014 92.735L42.0114 93.14C41.7414 93.73 41.2914 94.215 40.6614 94.595C40.0414 94.965 39.3164 95.15 38.4864 95.15ZM36.1314 90.53H40.8714C40.8314 90.08 40.7014 89.685 40.4814 89.345C40.2614 88.995 39.9764 88.725 39.6264 88.535C39.2864 88.335 38.9064 88.235 38.4864 88.235C38.0764 88.235 37.6964 88.335 37.3464 88.535C37.0064 88.725 36.7264 88.995 36.5064 89.345C36.2864 89.685 36.1614 90.08 36.1314 90.53ZM43.3001 93.125C43.4601 93.235 43.7051 93.35 44.0351 93.47C44.3651 93.59 44.7551 93.65 45.2051 93.65C45.7951 93.65 46.2401 93.525 46.5401 93.275C46.8401 93.015 47.0401 92.615 47.1401 92.075C47.2401 91.535 47.2901 90.845 47.2901 90.005V84.35H48.9851V89.765C48.9851 90.565 48.9401 91.295 48.8501 91.955C48.7701 92.615 48.6051 93.185 48.3551 93.665C48.1051 94.145 47.7301 94.515 47.2301 94.775C46.7401 95.035 46.0801 95.165 45.2501 95.165C44.7501 95.165 44.3101 95.11 43.9301 95C43.5501 94.89 43.2051 94.725 42.8951 94.505L43.3001 93.125ZM57.5693 86.855C57.4393 86.705 57.2243 86.55 56.9243 86.39C56.6343 86.22 56.2943 86.075 55.9043 85.955C55.5143 85.835 55.1093 85.775 54.6893 85.775C53.9793 85.775 53.4543 85.905 53.1143 86.165C52.7843 86.425 52.6193 86.785 52.6193 87.245C52.6193 87.585 52.7143 87.855 52.9043 88.055C53.0943 88.245 53.3843 88.41 53.7743 88.55C54.1643 88.68 54.6543 88.815 55.2443 88.955C55.9643 89.125 56.5843 89.33 57.1043 89.57C57.6343 89.8 58.0393 90.11 58.3193 90.5C58.6093 90.89 58.7543 91.405 58.7543 92.045C58.7543 92.775 58.5793 93.365 58.2293 93.815C57.8793 94.265 57.4043 94.595 56.8043 94.805C56.2143 95.005 55.5643 95.105 54.8543 95.105C54.0443 95.105 53.2593 94.98 52.4993 94.73C51.7393 94.48 51.0593 94.125 50.4593 93.665L51.2243 92.225C51.3943 92.395 51.6643 92.59 52.0343 92.81C52.4043 93.02 52.8343 93.205 53.3243 93.365C53.8243 93.515 54.3443 93.59 54.8843 93.59C55.5443 93.59 56.0543 93.475 56.4143 93.245C56.7743 93.005 56.9543 92.665 56.9543 92.225C56.9543 91.865 56.8343 91.58 56.5943 91.37C56.3643 91.15 56.0293 90.97 55.5893 90.83C55.1593 90.68 54.6393 90.525 54.0293 90.365C53.3293 90.185 52.7443 89.98 52.2743 89.75C51.8043 89.52 51.4493 89.23 51.2093 88.88C50.9793 88.53 50.8643 88.075 50.8643 87.515C50.8643 86.815 51.0343 86.225 51.3743 85.745C51.7143 85.255 52.1743 84.89 52.7543 84.65C53.3443 84.4 54.0043 84.275 54.7343 84.275C55.4543 84.275 56.1193 84.39 56.7293 84.62C57.3393 84.85 57.8743 85.135 58.3343 85.475L57.5693 86.855Z" fill="#1E1E1E"/>
</svg>
