<svg width="77" height="100" viewBox="0 0 77 100" fill="none" xmlns="http://www.w3.org/2000/svg">
<path d="M1.2 95V84.35H5.67C6.15 84.35 6.59 84.45 6.99 84.65C7.4 84.85 7.75 85.115 8.04 85.445C8.34 85.775 8.57 86.145 8.73 86.555C8.89 86.965 8.97 87.385 8.97 87.815C8.97 88.415 8.835 88.98 8.565 89.51C8.295 90.04 7.92 90.47 7.44 90.8C6.96 91.13 6.4 91.295 5.76 91.295H2.88V95H1.2ZM2.88 89.81H5.655C6.125 89.81 6.51 89.62 6.81 89.24C7.11 88.86 7.26 88.385 7.26 87.815C7.26 87.425 7.18 87.085 7.02 86.795C6.86 86.495 6.65 86.26 6.39 86.09C6.14 85.92 5.865 85.835 5.565 85.835H2.88V89.81ZM17.3707 95H15.7207V90.605C15.7207 89.895 15.5907 89.365 15.3307 89.015C15.0707 88.665 14.7057 88.49 14.2357 88.49C13.9357 88.49 13.6307 88.57 13.3207 88.73C13.0207 88.89 12.7507 89.11 12.5107 89.39C12.2707 89.66 12.0957 89.975 11.9857 90.335V95H10.3357V84.05H11.9857V88.73C12.2857 88.19 12.6957 87.77 13.2157 87.47C13.7357 87.17 14.2957 87.02 14.8957 87.02C15.5457 87.02 16.0507 87.17 16.4107 87.47C16.7707 87.76 17.0207 88.15 17.1607 88.64C17.3007 89.12 17.3707 89.645 17.3707 90.215V95ZM22.8109 95.15C21.9909 95.15 21.2759 94.965 20.6659 94.595C20.0659 94.215 19.6009 93.72 19.2709 93.11C18.9409 92.49 18.7759 91.815 18.7759 91.085C18.7759 90.355 18.9409 89.685 19.2709 89.075C19.6109 88.455 20.0809 87.96 20.6809 87.59C21.2909 87.21 22.0009 87.02 22.8109 87.02C23.6209 87.02 24.3259 87.21 24.9259 87.59C25.5359 87.96 26.0059 88.455 26.3359 89.075C26.6759 89.685 26.8459 90.355 26.8459 91.085C26.8459 91.815 26.6809 92.49 26.3509 93.11C26.0209 93.72 25.5509 94.215 24.9409 94.595C24.3409 94.965 23.6309 95.15 22.8109 95.15ZM20.4709 91.1C20.4709 91.6 20.5759 92.05 20.7859 92.45C20.9959 92.85 21.2759 93.165 21.6259 93.395C21.9759 93.625 22.3709 93.74 22.8109 93.74C23.2409 93.74 23.6309 93.625 23.9809 93.395C24.3409 93.155 24.6259 92.835 24.8359 92.435C25.0459 92.035 25.1509 91.585 25.1509 91.085C25.1509 90.585 25.0459 90.135 24.8359 89.735C24.6259 89.335 24.3409 89.02 23.9809 88.79C23.6309 88.55 23.2409 88.43 22.8109 88.43C22.3809 88.43 21.9859 88.55 21.6259 88.79C21.2759 89.02 20.9959 89.34 20.7859 89.75C20.5759 90.15 20.4709 90.6 20.4709 91.1ZM32.5571 94.595C32.3471 94.695 32.0571 94.81 31.6871 94.94C31.3171 95.06 30.9221 95.12 30.5021 95.12C29.9821 95.12 29.5321 94.98 29.1521 94.7C28.7821 94.42 28.5971 93.965 28.5971 93.335V88.43H27.5621V87.155H28.5971V84.575H30.2471V87.155H31.9571V88.43H30.2471V92.81C30.2671 93.09 30.3521 93.295 30.5021 93.425C30.6621 93.545 30.8571 93.605 31.0871 93.605C31.3171 93.605 31.5371 93.565 31.7471 93.485C31.9571 93.405 32.1121 93.34 32.2121 93.29L32.5571 94.595ZM37.1224 95.15C36.3024 95.15 35.5874 94.965 34.9774 94.595C34.3774 94.215 33.9124 93.72 33.5824 93.11C33.2524 92.49 33.0874 91.815 33.0874 91.085C33.0874 90.355 33.2524 89.685 33.5824 89.075C33.9224 88.455 34.3924 87.96 34.9924 87.59C35.6024 87.21 36.3124 87.02 37.1224 87.02C37.9324 87.02 38.6374 87.21 39.2374 87.59C39.8474 87.96 40.3174 88.455 40.6474 89.075C40.9874 89.685 41.1574 90.355 41.1574 91.085C41.1574 91.815 40.9924 92.49 40.6624 93.11C40.3324 93.72 39.8624 94.215 39.2524 94.595C38.6524 94.965 37.9424 95.15 37.1224 95.15ZM34.7824 91.1C34.7824 91.6 34.8874 92.05 35.0974 92.45C35.3074 92.85 35.5874 93.165 35.9374 93.395C36.2874 93.625 36.6824 93.74 37.1224 93.74C37.5524 93.74 37.9424 93.625 38.2924 93.395C38.6524 93.155 38.9374 92.835 39.1474 92.435C39.3574 92.035 39.4624 91.585 39.4624 91.085C39.4624 90.585 39.3574 90.135 39.1474 89.735C38.9374 89.335 38.6524 89.02 38.2924 88.79C37.9424 88.55 37.5524 88.43 37.1224 88.43C36.6924 88.43 36.2974 88.55 35.9374 88.79C35.5874 89.02 35.3074 89.34 35.0974 89.75C34.8874 90.15 34.7824 90.6 34.7824 91.1ZM45.4109 95.15C44.7509 95.15 44.1259 95.04 43.5359 94.82C42.9459 94.6 42.4409 94.28 42.0209 93.86L42.6359 92.75C43.0859 93.15 43.5359 93.44 43.9859 93.62C44.4359 93.8 44.8909 93.89 45.3509 93.89C45.8109 93.89 46.1859 93.805 46.4759 93.635C46.7659 93.455 46.9109 93.195 46.9109 92.855C46.9109 92.615 46.8359 92.43 46.6859 92.3C46.5359 92.17 46.3159 92.065 46.0259 91.985C45.7459 91.905 45.4059 91.805 45.0059 91.685C44.4459 91.515 43.9759 91.34 43.5959 91.16C43.2159 90.97 42.9309 90.74 42.7409 90.47C42.5509 90.2 42.4559 89.855 42.4559 89.435C42.4559 88.675 42.7409 88.085 43.3109 87.665C43.8809 87.235 44.6259 87.02 45.5459 87.02C46.1159 87.02 46.6409 87.11 47.1209 87.29C47.6109 87.46 48.0409 87.73 48.4109 88.1L47.7059 89.195C47.0259 88.575 46.2759 88.265 45.4559 88.265C45.0959 88.265 44.7609 88.335 44.4509 88.475C44.1509 88.615 44.0009 88.875 44.0009 89.255C44.0009 89.575 44.1359 89.805 44.4059 89.945C44.6759 90.085 45.0759 90.235 45.6059 90.395C46.2059 90.575 46.7209 90.755 47.1509 90.935C47.5909 91.105 47.9259 91.33 48.1559 91.61C48.3959 91.88 48.5159 92.255 48.5159 92.735C48.5159 93.495 48.2309 94.09 47.6609 94.52C47.0909 94.94 46.3409 95.15 45.4109 95.15ZM57.024 95H55.374V90.605C55.374 89.895 55.244 89.365 54.984 89.015C54.724 88.665 54.359 88.49 53.889 88.49C53.589 88.49 53.284 88.57 52.974 88.73C52.674 88.89 52.404 89.11 52.164 89.39C51.924 89.66 51.749 89.975 51.639 90.335V95H49.989V84.05H51.639V88.73C51.939 88.19 52.349 87.77 52.869 87.47C53.389 87.17 53.949 87.02 54.549 87.02C55.199 87.02 55.704 87.17 56.064 87.47C56.424 87.76 56.674 88.15 56.814 88.64C56.954 89.12 57.024 89.645 57.024 90.215V95ZM62.4642 95.15C61.6442 95.15 60.9292 94.965 60.3192 94.595C59.7192 94.215 59.2542 93.72 58.9242 93.11C58.5942 92.49 58.4292 91.815 58.4292 91.085C58.4292 90.355 58.5942 89.685 58.9242 89.075C59.2642 88.455 59.7342 87.96 60.3342 87.59C60.9442 87.21 61.6542 87.02 62.4642 87.02C63.2742 87.02 63.9792 87.21 64.5792 87.59C65.1892 87.96 65.6592 88.455 65.9892 89.075C66.3292 89.685 66.4992 90.355 66.4992 91.085C66.4992 91.815 66.3342 92.49 66.0042 93.11C65.6742 93.72 65.2042 94.215 64.5942 94.595C63.9942 94.965 63.2842 95.15 62.4642 95.15ZM60.1242 91.1C60.1242 91.6 60.2292 92.05 60.4392 92.45C60.6492 92.85 60.9292 93.165 61.2792 93.395C61.6292 93.625 62.0242 93.74 62.4642 93.74C62.8942 93.74 63.2842 93.625 63.6342 93.395C63.9942 93.155 64.2792 92.835 64.4892 92.435C64.6992 92.035 64.8042 91.585 64.8042 91.085C64.8042 90.585 64.6992 90.135 64.4892 89.735C64.2792 89.335 63.9942 89.02 63.6342 88.79C63.2842 88.55 62.8942 88.43 62.4642 88.43C62.0342 88.43 61.6392 88.55 61.2792 88.79C60.9292 89.02 60.6492 89.34 60.4392 89.75C60.2292 90.15 60.1242 90.6 60.1242 91.1ZM72.4177 95.15C71.7877 95.15 71.2327 95 70.7527 94.7C70.2727 94.4 69.8927 94.01 69.6127 93.53V98.195H67.9627V87.155H69.4177V88.565C69.7177 88.095 70.1077 87.72 70.5877 87.44C71.0677 87.16 71.6027 87.02 72.1927 87.02C72.9127 87.02 73.5477 87.21 74.0977 87.59C74.6577 87.96 75.0977 88.455 75.4177 89.075C75.7377 89.685 75.8977 90.35 75.8977 91.07C75.8977 91.83 75.7477 92.52 75.4477 93.14C75.1477 93.75 74.7377 94.24 74.2177 94.61C73.6977 94.97 73.0977 95.15 72.4177 95.15ZM71.8777 93.74C72.3477 93.74 72.7527 93.615 73.0927 93.365C73.4427 93.105 73.7127 92.775 73.9027 92.375C74.1027 91.965 74.2027 91.53 74.2027 91.07C74.2027 90.59 74.0927 90.15 73.8727 89.75C73.6627 89.35 73.3727 89.03 73.0027 88.79C72.6427 88.55 72.2277 88.43 71.7577 88.43C71.4777 88.43 71.1827 88.5 70.8727 88.64C70.5727 88.78 70.3077 88.965 70.0777 89.195C69.8477 89.425 69.6927 89.685 69.6127 89.975V92.03C69.8127 92.51 70.1177 92.915 70.5277 93.245C70.9477 93.575 71.3977 93.74 71.8777 93.74Z" fill="#1E1E1E"/>
<path d="M1 0V72H75V0H1ZM4.08256 3.07635H71.9151V68.9213H4.08256V3.07635ZM18.8849 16.8634C18.8849 16.658 19.3196 16.5034 19.5717 16.5034C22.2203 16.3915 24.8711 16.3392 27.5221 16.3464C36.0737 16.3464 39.3968 21.0221 39.3968 27.0087C39.3968 34.8345 33.7126 38.1878 26.7497 38.1878C25.5703 38.1878 25.1726 38.1278 24.3539 38.1278V49.9555C24.3539 50.2071 24.2568 50.3155 24.0047 50.3155H19.2341C18.982 50.3155 18.8849 50.2186 18.8849 49.967V16.8634ZM24.3539 33.2121C25.0639 33.2606 25.6304 33.2606 26.8584 33.2606C30.4589 33.2606 33.856 31.9867 33.856 27.1194C33.856 23.2123 31.4233 21.2298 27.3047 21.2298C26.0883 21.2298 24.9205 21.2783 24.3539 21.3268V33.2121ZM50.8991 29.545C48.4548 29.545 47.6362 30.7704 47.6362 31.7813C47.6362 32.8983 48.1912 33.6575 51.4541 35.34C56.2849 37.6847 57.8135 39.9072 57.8135 43.212C57.8135 48.1277 54.0441 50.7725 48.9613 50.7725C46.2626 50.7725 43.9639 50.2071 42.6389 49.4501C42.4469 49.3532 42.3984 49.1985 42.3984 48.9447V44.4259C42.3984 44.1259 42.5441 44.0174 42.7476 44.1744C44.5931 45.372 46.7483 46.0071 48.9497 46.0022C51.394 46.0022 52.4069 44.9913 52.4069 43.6113C52.4069 42.4943 51.6969 41.5319 48.6005 39.9095C44.216 37.8186 42.3845 35.6907 42.3845 32.1321C42.3845 28.1649 45.4925 24.8716 50.876 24.8716C53.5261 24.8716 55.3923 25.2801 56.4168 25.7255C56.6688 25.8824 56.7174 26.134 56.7174 26.3394V30.5581C56.7174 30.8097 56.5601 30.9666 56.2595 30.8581C54.8859 30.0527 52.8624 29.5357 50.8876 29.5357L50.8991 29.545Z" fill="#1E1E1E"/>
</svg>
