<svg width="72" height="100" viewBox="0 0 72 100" fill="none" xmlns="http://www.w3.org/2000/svg">
<path d="M27.5 86.855C27.37 86.705 27.155 86.55 26.855 86.39C26.565 86.22 26.225 86.075 25.835 85.955C25.445 85.835 25.04 85.775 24.62 85.775C23.91 85.775 23.385 85.905 23.045 86.165C22.715 86.425 22.55 86.785 22.55 87.245C22.55 87.585 22.645 87.855 22.835 88.055C23.025 88.245 23.315 88.41 23.705 88.55C24.095 88.68 24.585 88.815 25.175 88.955C25.895 89.125 26.515 89.33 27.035 89.57C27.565 89.8 27.97 90.11 28.25 90.5C28.54 90.89 28.685 91.405 28.685 92.045C28.685 92.775 28.51 93.365 28.16 93.815C27.81 94.265 27.335 94.595 26.735 94.805C26.145 95.005 25.495 95.105 24.785 95.105C23.975 95.105 23.19 94.98 22.43 94.73C21.67 94.48 20.99 94.125 20.39 93.665L21.155 92.225C21.325 92.395 21.595 92.59 21.965 92.81C22.335 93.02 22.765 93.205 23.255 93.365C23.755 93.515 24.275 93.59 24.815 93.59C25.475 93.59 25.985 93.475 26.345 93.245C26.705 93.005 26.885 92.665 26.885 92.225C26.885 91.865 26.765 91.58 26.525 91.37C26.295 91.15 25.96 90.97 25.52 90.83C25.09 90.68 24.57 90.525 23.96 90.365C23.26 90.185 22.675 89.98 22.205 89.75C21.735 89.52 21.38 89.23 21.14 88.88C20.91 88.53 20.795 88.075 20.795 87.515C20.795 86.815 20.965 86.225 21.305 85.745C21.645 85.255 22.105 84.89 22.685 84.65C23.275 84.4 23.935 84.275 24.665 84.275C25.385 84.275 26.05 84.39 26.66 84.62C27.27 84.85 27.805 85.135 28.265 85.475L27.5 86.855ZM29.5753 92.705C29.5753 92.205 29.7153 91.77 29.9953 91.4C30.2753 91.02 30.6653 90.73 31.1653 90.53C31.6753 90.32 32.2603 90.215 32.9203 90.215C33.2703 90.215 33.6253 90.245 33.9853 90.305C34.3553 90.355 34.6803 90.43 34.9603 90.53V90.035C34.9603 89.485 34.7953 89.055 34.4653 88.745C34.1353 88.435 33.6603 88.28 33.0403 88.28C32.6103 88.28 32.1953 88.355 31.7953 88.505C31.3953 88.655 30.9803 88.875 30.5503 89.165L29.9953 88.055C30.5153 87.715 31.0353 87.46 31.5553 87.29C32.0853 87.11 32.6403 87.02 33.2203 87.02C34.2703 87.02 35.0953 87.3 35.6953 87.86C36.3053 88.41 36.6103 89.195 36.6103 90.215V93.14C36.6103 93.33 36.6403 93.465 36.7003 93.545C36.7703 93.625 36.8853 93.67 37.0453 93.68V95C36.8953 95.03 36.7603 95.05 36.6403 95.06C36.5203 95.07 36.4203 95.075 36.3403 95.075C35.9803 95.075 35.7103 94.99 35.5303 94.82C35.3603 94.64 35.2603 94.44 35.2303 94.22L35.1853 93.77C34.8453 94.21 34.4103 94.55 33.8803 94.79C33.3503 95.03 32.8153 95.15 32.2753 95.15C31.7553 95.15 31.2903 95.045 30.8803 94.835C30.4703 94.615 30.1503 94.32 29.9203 93.95C29.6903 93.58 29.5753 93.165 29.5753 92.705ZM34.5703 93.185C34.8303 92.925 34.9603 92.68 34.9603 92.45V91.55C34.3703 91.33 33.7703 91.22 33.1603 91.22C32.5603 91.22 32.0703 91.345 31.6903 91.595C31.3203 91.835 31.1353 92.16 31.1353 92.57C31.1353 92.91 31.2703 93.225 31.5403 93.515C31.8203 93.795 32.2203 93.935 32.7403 93.935C33.0903 93.935 33.4303 93.865 33.7603 93.725C34.0903 93.585 34.3603 93.405 34.5703 93.185ZM41.4021 95.15C40.7421 95.15 40.1171 95.04 39.5271 94.82C38.9371 94.6 38.4321 94.28 38.0121 93.86L38.6271 92.75C39.0771 93.15 39.5271 93.44 39.9771 93.62C40.4271 93.8 40.8821 93.89 41.3421 93.89C41.8021 93.89 42.1771 93.805 42.4671 93.635C42.7571 93.455 42.9021 93.195 42.9021 92.855C42.9021 92.615 42.8271 92.43 42.6771 92.3C42.5271 92.17 42.3071 92.065 42.0171 91.985C41.7371 91.905 41.3971 91.805 40.9971 91.685C40.4371 91.515 39.9671 91.34 39.5871 91.16C39.2071 90.97 38.9221 90.74 38.7321 90.47C38.5421 90.2 38.4471 89.855 38.4471 89.435C38.4471 88.675 38.7321 88.085 39.3021 87.665C39.8721 87.235 40.6171 87.02 41.5371 87.02C42.1071 87.02 42.6321 87.11 43.1121 87.29C43.6021 87.46 44.0321 87.73 44.4021 88.1L43.6971 89.195C43.0171 88.575 42.2671 88.265 41.4471 88.265C41.0871 88.265 40.7521 88.335 40.4421 88.475C40.1421 88.615 39.9921 88.875 39.9921 89.255C39.9921 89.575 40.1271 89.805 40.3971 89.945C40.6671 90.085 41.0671 90.235 41.5971 90.395C42.1971 90.575 42.7121 90.755 43.1421 90.935C43.5821 91.105 43.9171 91.33 44.1471 91.61C44.3871 91.88 44.5071 92.255 44.5071 92.735C44.5071 93.495 44.2221 94.09 43.6521 94.52C43.0821 94.94 42.3321 95.15 41.4021 95.15ZM48.7702 95.15C48.1102 95.15 47.4852 95.04 46.8952 94.82C46.3052 94.6 45.8002 94.28 45.3802 93.86L45.9952 92.75C46.4452 93.15 46.8952 93.44 47.3452 93.62C47.7952 93.8 48.2502 93.89 48.7102 93.89C49.1702 93.89 49.5452 93.805 49.8352 93.635C50.1252 93.455 50.2702 93.195 50.2702 92.855C50.2702 92.615 50.1952 92.43 50.0452 92.3C49.8952 92.17 49.6752 92.065 49.3852 91.985C49.1052 91.905 48.7652 91.805 48.3652 91.685C47.8052 91.515 47.3352 91.34 46.9552 91.16C46.5752 90.97 46.2902 90.74 46.1002 90.47C45.9102 90.2 45.8152 89.855 45.8152 89.435C45.8152 88.675 46.1002 88.085 46.6702 87.665C47.2402 87.235 47.9852 87.02 48.9052 87.02C49.4752 87.02 50.0002 87.11 50.4802 87.29C50.9702 87.46 51.4002 87.73 51.7702 88.1L51.0652 89.195C50.3852 88.575 49.6352 88.265 48.8152 88.265C48.4552 88.265 48.1202 88.335 47.8102 88.475C47.5102 88.615 47.3602 88.875 47.3602 89.255C47.3602 89.575 47.4952 89.805 47.7652 89.945C48.0352 90.085 48.4352 90.235 48.9652 90.395C49.5652 90.575 50.0802 90.755 50.5102 90.935C50.9502 91.105 51.2852 91.33 51.5152 91.61C51.7552 91.88 51.8752 92.255 51.8752 92.735C51.8752 93.495 51.5902 94.09 51.0202 94.52C50.4502 94.94 49.7002 95.15 48.7702 95.15Z" fill="#1E1E1E"/>
<path d="M36 0C55.8877 0 72 16.1123 72 36C72 55.8877 55.8877 72 36 72C16.1123 72 0 55.8877 0 36C0 16.1123 16.1123 0 36 0ZM28.8383 47.988C29.367 49.9342 29.3085 51.7388 28.7685 53.3677L28.5795 53.9077C28.5097 54.0945 28.4175 54.27 28.3455 54.4365C27.9123 55.3251 27.3522 56.1459 26.6828 56.8733C24.5835 59.148 21.6675 60.0143 20.412 59.2875C19.053 58.5023 19.7302 55.2803 22.158 52.7108C24.7702 49.9567 28.521 48.186 28.521 48.186V48.177L28.8383 47.988ZM58.581 15.4102C56.952 9.01125 46.3477 6.91425 36.315 10.476C30.339 12.5978 23.8838 15.9277 19.2307 20.2747C13.698 25.4408 12.8205 29.9408 13.185 31.815C14.472 38.448 23.5552 42.7972 27.2947 46.008V46.0327C26.19 46.5705 18.1305 50.6138 16.2428 54.81C14.2155 59.2133 16.56 62.3677 18.081 62.766C22.806 64.0778 27.6682 61.686 30.2827 57.8183C32.8027 54.036 32.5778 49.185 31.4888 46.7933C32.976 46.395 34.7355 46.206 36.9855 46.476C43.2922 47.2028 44.5455 51.165 44.2755 52.7827C44.0055 54.4005 42.7028 55.3477 42.2483 55.6177C41.805 55.8877 41.6632 55.9688 41.7083 56.1577C41.7555 56.4277 41.9783 56.4277 42.3405 56.3805C42.8333 56.2995 45.6233 55.0328 45.7628 51.9728C45.891 48.0938 42.1987 43.7828 35.6377 43.8638C32.931 43.9245 31.2188 44.145 30.0127 44.6378C29.9251 44.5153 29.818 44.4081 29.6955 44.3205C25.6432 39.9622 18.1305 36.9045 18.4455 31.0905C18.5422 28.9823 19.3027 23.4045 32.8478 16.6545C43.956 11.1105 52.8278 12.6472 54.351 16.0222C56.556 20.8372 49.6283 29.7922 38.0632 31.0905C33.6555 31.5833 31.3582 29.8845 30.7733 29.2523C30.141 28.5705 30.06 28.5255 29.8215 28.6672C29.4705 28.8405 29.6932 29.43 29.8215 29.7922C30.1838 30.6923 31.5788 32.265 34.0177 33.0705C36.126 33.7523 41.3078 34.1505 47.5177 31.7227C54.4905 29.0295 59.9288 21.5168 58.356 15.21L58.581 15.4102Z" fill="#1E1E1E"/>
</svg>
