<svg width="18" height="15" viewBox="0 0 18 15" fill="none" xmlns="http://www.w3.org/2000/svg">
<path fill-rule="evenodd" clip-rule="evenodd" d="M7.70449 14.6021C7.59045 14.5032 7.49997 14.3856 7.43824 14.2562C7.3765 14.1268 7.34473 13.9881 7.34473 13.848C7.34473 13.7079 7.3765 13.5692 7.43824 13.4398C7.49997 13.3104 7.59045 13.1928 7.70449 13.0939L14.1873 7.45727L7.70449 1.82064C7.47455 1.62063 7.34537 1.34937 7.34537 1.06653C7.34537 0.783682 7.47455 0.512422 7.70449 0.31242C7.93443 0.112418 8.2463 5.8988e-05 8.57148 5.894e-05C8.89667 5.8892e-05 9.20853 0.112418 9.43848 0.31242L16.7859 6.70316C16.8999 6.8021 16.9904 6.91964 17.0521 7.04904C17.1139 7.17844 17.1456 7.31717 17.1456 7.45727C17.1456 7.59737 17.1139 7.73609 17.0521 7.8655C16.9904 7.9949 16.8999 8.11244 16.7859 8.21138L9.43848 14.6021C9.32472 14.7013 9.18959 14.78 9.04082 14.8337C8.89204 14.8874 8.73255 14.915 8.57148 14.915C8.41041 14.915 8.25092 14.8874 8.10215 14.8337C7.95337 14.78 7.81824 14.7013 7.70449 14.6021V14.6021Z" fill="#F3F3F3"/>
<path fill-rule="evenodd" clip-rule="evenodd" d="M-1.44409e-08 7.45709C-1.82709e-08 7.1746 0.129017 6.90369 0.358668 6.70394C0.588318 6.50419 0.899791 6.39197 1.22457 6.39197L13.4702 6.39197C13.795 6.39197 14.1065 6.50418 14.3361 6.70393C14.5658 6.90368 14.6948 7.1746 14.6948 7.45709C14.6948 7.73958 14.5658 8.0105 14.3361 8.21025C14.1065 8.41 13.795 8.52221 13.4702 8.52221L1.22457 8.52222C0.899791 8.52222 0.588318 8.41 0.358668 8.21025C0.129017 8.0105 -1.06109e-08 7.73958 -1.44409e-08 7.45709V7.45709Z" fill="#F3F3F3"/>
</svg>
