<svg width="12" height="11" viewBox="0 0 12 11" fill="none" xmlns="http://www.w3.org/2000/svg">
<path fill-rule="evenodd" clip-rule="evenodd" d="M4.98985 9.85013C4.91598 9.78339 4.85738 9.7041 4.8174 9.61681C4.77742 9.52952 4.75684 9.43594 4.75684 9.34143C4.75684 9.24692 4.77742 9.15334 4.8174 9.06605C4.85738 8.97876 4.91598 8.89947 4.98985 8.83273L9.18864 5.03041L4.98984 1.2281C4.84092 1.09318 4.75725 0.910198 4.75725 0.719398C4.75725 0.528599 4.84092 0.345614 4.98984 0.210698C5.13877 0.0757826 5.34076 -1.17391e-05 5.55138 -1.17539e-05C5.76199 -1.17687e-05 5.96398 0.0757825 6.11291 0.210698L10.8716 4.52171C10.9455 4.58846 11.0041 4.66775 11.0441 4.75504C11.0841 4.84233 11.1047 4.93591 11.1047 5.03041C11.1047 5.12492 11.0841 5.2185 11.0441 5.30579C11.0041 5.39308 10.9455 5.47237 10.8716 5.53911L6.11291 9.85013C6.03923 9.91704 5.95171 9.97013 5.85535 10.0064C5.759 10.0426 5.6557 10.0612 5.55138 10.0612C5.44705 10.0612 5.34376 10.0426 5.2474 10.0064C5.15104 9.97013 5.06352 9.91704 4.98985 9.85013V9.85013Z" fill="#1E1E1E"/>
<path fill-rule="evenodd" clip-rule="evenodd" d="M-2.15692e-08 5.03052C-2.72898e-08 4.83996 0.0835611 4.65721 0.232301 4.52246C0.38104 4.38772 0.582774 4.31202 0.793123 4.31202L8.72435 4.31202C8.9347 4.31202 9.13644 4.38772 9.28518 4.52246C9.43392 4.65721 9.51748 4.83996 9.51748 5.03052C9.51748 5.22108 9.43392 5.40383 9.28518 5.53858C9.13644 5.67332 8.9347 5.74902 8.72436 5.74902L0.793123 5.74902C0.582774 5.74902 0.38104 5.67332 0.232301 5.53858C0.0835611 5.40383 -1.58487e-08 5.22108 -2.15692e-08 5.03052V5.03052Z" fill="#1E1E1E"/>
</svg>
