<svg width="17" height="15" viewBox="0 0 17 15" fill="none" xmlns="http://www.w3.org/2000/svg">
<path fill-rule="evenodd" clip-rule="evenodd" d="M7.448 14.6021C7.33776 14.5032 7.25029 14.3856 7.19061 14.2562C7.13094 14.1268 7.10022 13.9881 7.10022 13.848C7.10022 13.7079 7.13094 13.5692 7.19061 13.4398C7.25029 13.3104 7.33776 13.1928 7.448 13.0939L13.7149 7.45727L7.448 1.82064C7.22572 1.62063 7.10084 1.34937 7.10084 1.06653C7.10084 0.783682 7.22572 0.512422 7.448 0.31242C7.67028 0.112418 7.97176 5.906e-05 8.28611 5.9038e-05C8.60047 5.90161e-05 8.90195 0.112418 9.12423 0.31242L16.2269 6.70316C16.3371 6.8021 16.4246 6.91964 16.4843 7.04904C16.544 7.17845 16.5747 7.31717 16.5747 7.45727C16.5747 7.59737 16.544 7.73609 16.4843 7.8655C16.4246 7.9949 16.3371 8.11244 16.2269 8.21138L9.12423 14.6021C9.01426 14.7013 8.88363 14.78 8.73981 14.8337C8.596 14.8874 8.44182 14.915 8.28611 14.915C8.13041 14.915 7.97623 14.8874 7.83241 14.8337C7.68859 14.78 7.55796 14.7013 7.448 14.6021V14.6021Z" fill="#1E1E1E"/>
<path fill-rule="evenodd" clip-rule="evenodd" d="M-3.22019e-08 7.45709C-4.07424e-08 7.1746 0.124719 6.90369 0.346721 6.70394C0.568722 6.50419 0.86982 6.39197 1.18378 6.39197L13.0216 6.39197C13.3355 6.39197 13.6366 6.50419 13.8586 6.70394C14.0806 6.90368 14.2053 7.1746 14.2053 7.45709C14.2053 7.73958 14.0806 8.0105 13.8586 8.21025C13.6366 8.41 13.3355 8.52222 13.0216 8.52222L1.18378 8.52222C0.86982 8.52222 0.568722 8.41 0.346721 8.21025C0.124719 8.0105 -2.36614e-08 7.73958 -3.22019e-08 7.45709V7.45709Z" fill="#1E1E1E"/>
</svg>
