<svg width="12" height="12" viewBox="0 0 12 12" fill="none" xmlns="http://www.w3.org/2000/svg">
<path d="M1.60023 0.254308L6.00011 4.65376L10.4 0.267639C10.4866 0.179503 10.5906 0.110299 10.7053 0.064404C10.8201 0.0185089 10.9431 -0.00307888 11.0666 0.00100586C11.309 0.0166897 11.5374 0.120046 11.7091 0.291775C11.8809 0.463505 11.9843 0.691868 11.9999 0.934223C12.0012 1.05338 11.9781 1.17155 11.9323 1.28155C11.8865 1.39155 11.8188 1.49109 11.7333 1.57414L7.32007 6.00026L11.7333 10.4264C11.9066 10.5944 12.0026 10.8263 11.9999 11.0663C11.9843 11.3087 11.8809 11.537 11.7091 11.7087C11.5374 11.8805 11.309 11.9838 11.0666 11.9995C10.9431 12.0036 10.8201 11.982 10.7053 11.9361C10.5906 11.8902 10.4866 11.821 10.4 11.7329L6.00011 7.34676L1.61356 11.7329C1.52693 11.821 1.42296 11.8902 1.30821 11.9361C1.19346 11.982 1.07043 12.0036 0.946914 11.9995C0.700014 11.9867 0.466627 11.8828 0.291806 11.708C0.116985 11.5332 0.0131245 11.2998 0.000272896 11.053C-0.000933474 10.9338 0.0220804 10.8156 0.0679184 10.7056C0.113756 10.5956 0.181463 10.4961 0.266932 10.413L4.68015 6.00026L0.253599 1.57414C0.170537 1.48997 0.105294 1.38992 0.0617686 1.27998C0.0182431 1.17003 -0.00267199 1.05244 0.000272896 0.934223C0.0159583 0.691868 0.119324 0.463505 0.291071 0.291775C0.462817 0.120046 0.691202 0.0166897 0.933581 0.00100586C1.05614 -0.0048147 1.17859 0.0146725 1.29328 0.0582527C1.40798 0.101833 1.51246 0.168572 1.60023 0.254308V0.254308Z" fill="#F3F3F3"/>
</svg>
