<svg width="19" height="18" viewBox="0 0 19 18" fill="none" xmlns="http://www.w3.org/2000/svg">
<path d="M9.06029 7.43241e-07C4.09816 -0.00198408 0.0791016 3.97163 0.0791016 8.87612C0.0791016 12.7545 2.59327 16.0513 6.09465 17.262C6.56618 17.3791 6.49395 17.0476 6.49395 16.8214V15.2831C3.7711 15.5987 3.66074 13.8163 3.47815 13.5186C3.10895 12.8954 2.23611 12.7366 2.49696 12.4389C3.11697 12.1233 3.74903 12.5183 4.48141 13.5881C5.01113 14.3642 6.04449 14.2332 6.56819 14.1041C6.68256 13.6377 6.92736 13.2209 7.26445 12.8974C4.44328 12.3972 3.26746 10.6942 3.26746 8.6697C3.26746 7.68721 3.59453 6.78412 4.23661 6.05569C3.82728 4.85487 4.27474 3.82674 4.33493 3.6739C5.50072 3.57069 6.71266 4.49959 6.80696 4.57303C7.46912 4.39638 8.22557 4.30309 9.07233 4.30309C9.92309 4.30309 10.6816 4.40035 11.3497 4.57898C11.5765 4.40829 12.7001 3.61039 13.7836 3.70765C13.8418 3.86048 14.2792 4.8648 13.894 6.04974C14.5441 6.78015 14.8752 7.69118 14.8752 8.67566C14.8752 10.7041 13.6913 12.4091 10.8621 12.9013C11.1045 13.1371 11.2969 13.4182 11.4281 13.7283C11.5594 14.0384 11.6269 14.3713 11.6266 14.7075V16.9405C11.6427 17.1191 11.6266 17.2957 11.9276 17.2957C15.4812 16.1108 18.0395 12.7902 18.0395 8.87811C18.0395 3.97163 14.0184 7.43241e-07 9.06029 7.43241e-07V7.43241e-07Z" fill="#1E1E1E"/>
</svg>
