<svg width="41" height="60" viewBox="0 0 41 60" fill="none" xmlns="http://www.w3.org/2000/svg">
<path d="M20.5023 1.67593e-06C9.17473 -0.00447388 0 8.95559 0 20.0147C0 28.7599 5.73936 36.1938 13.7323 38.9239C14.8087 39.188 14.6438 38.4406 14.6438 37.9303V34.4618C8.42811 35.1734 8.17618 31.1543 7.75936 30.483C6.91655 29.0777 4.92403 28.7196 5.5195 28.0483C6.93487 27.3367 8.37772 28.2273 10.0496 30.6397C11.2589 32.3896 13.6178 32.0942 14.8133 31.8033C15.0744 30.7515 15.6332 29.8117 16.4028 29.0822C9.96257 27.9543 7.2784 24.1143 7.2784 19.5492C7.2784 17.3338 8.02503 15.2975 9.49078 13.6549C8.55636 10.9472 9.57781 8.62887 9.71523 8.28426C12.3765 8.05153 15.1431 10.1461 15.3584 10.3117C16.87 9.91336 18.5968 9.70301 20.5298 9.70301C22.4719 9.70301 24.2033 9.92231 25.7286 10.3251C26.2462 9.94021 28.8113 8.14104 31.2848 8.36034C31.4176 8.70496 32.4162 10.9696 31.5367 13.6415C33.0208 15.2885 33.7766 17.3428 33.7766 19.5627C33.7766 24.1367 31.0741 27.9812 24.6156 29.0911C25.1688 29.6227 25.608 30.2566 25.9076 30.9559C26.2073 31.6552 26.3613 32.4058 26.3607 33.1639V38.1989C26.3974 38.6017 26.3607 39 27.0478 39C35.1599 36.3281 41 28.8405 41 20.0192C41 8.95559 31.8207 1.67593e-06 20.5023 1.67593e-06Z" fill="#F3F3F3"/>
<path d="M5.44 56.06C4.88 56.06 4.356 55.94 3.868 55.7C3.388 55.452 2.968 55.124 2.608 54.716C2.248 54.3 1.968 53.836 1.768 53.324C1.568 52.804 1.468 52.268 1.468 51.716C1.468 51.14 1.568 50.596 1.768 50.084C1.968 49.564 2.244 49.104 2.596 48.704C2.956 48.304 3.376 47.992 3.856 47.768C4.344 47.536 4.872 47.42 5.44 47.42C6.264 47.42 6.944 47.592 7.48 47.936C8.016 48.28 8.42 48.728 8.692 49.28L7.864 49.856C7.616 49.36 7.276 48.992 6.844 48.752C6.412 48.512 5.936 48.392 5.416 48.392C4.984 48.392 4.592 48.484 4.24 48.668C3.888 48.852 3.584 49.104 3.328 49.424C3.08 49.736 2.888 50.092 2.752 50.492C2.624 50.892 2.56 51.308 2.56 51.74C2.56 52.348 2.688 52.908 2.944 53.42C3.208 53.924 3.564 54.328 4.012 54.632C4.46 54.936 4.964 55.088 5.524 55.088C5.98 55.088 6.416 54.98 6.832 54.764C7.256 54.54 7.656 54.2 8.032 53.744V52.568H6.196V51.752H8.944V56H8.032V54.848C7.296 55.656 6.432 56.06 5.44 56.06ZM10.4184 48.56V47.24H11.4744V48.56H10.4184ZM10.4184 56V49.736H11.4744V56H10.4184ZM16.424 55.688C16.296 55.744 16.092 55.824 15.812 55.928C15.54 56.032 15.236 56.084 14.9 56.084C14.516 56.084 14.184 55.98 13.904 55.772C13.624 55.556 13.484 55.224 13.484 54.776V50.564H12.632V49.736H13.484V47.648H14.54V49.736H15.944V50.564H14.54V54.452C14.556 54.676 14.632 54.844 14.768 54.956C14.904 55.06 15.064 55.112 15.248 55.112C15.456 55.112 15.648 55.076 15.824 55.004C16 54.932 16.116 54.88 16.172 54.848L16.424 55.688ZM24.4228 47.48V56H23.3428V52.124H18.6508V56H17.5708V47.48H18.6508V51.164H23.3428V47.48H24.4228ZM26.2373 53.492V49.736H27.2933V53.288C27.2933 54.568 27.7373 55.208 28.6253 55.208C29.0573 55.208 29.4613 55.072 29.8373 54.8C30.2213 54.52 30.5053 54.14 30.6893 53.66V49.736H31.7453V54.8C31.7453 55.048 31.8573 55.176 32.0813 55.184V56C31.9613 56.016 31.8653 56.024 31.7933 56.024C31.7293 56.032 31.6653 56.036 31.6013 56.036C31.4013 56.036 31.2293 55.976 31.0853 55.856C30.9413 55.728 30.8653 55.572 30.8573 55.388L30.8333 54.656C30.5613 55.12 30.1933 55.48 29.7293 55.736C29.2733 55.992 28.7733 56.12 28.2293 56.12C26.9013 56.12 26.2373 55.244 26.2373 53.492ZM36.7203 56.12C36.2323 56.12 35.7883 56 35.3883 55.76C34.9883 55.52 34.6723 55.208 34.4403 54.824V56H33.5043V47.24H34.5603V50.984C34.8243 50.576 35.1483 50.248 35.5323 50C35.9163 49.752 36.3643 49.628 36.8763 49.628C37.3083 49.628 37.6963 49.72 38.0403 49.904C38.3843 50.08 38.6763 50.324 38.9163 50.636C39.1643 50.94 39.3523 51.288 39.4803 51.68C39.6163 52.064 39.6843 52.468 39.6843 52.892C39.6843 53.476 39.5523 54.016 39.2883 54.512C39.0323 55 38.6803 55.392 38.2323 55.688C37.7843 55.976 37.2803 56.12 36.7203 56.12ZM36.4563 55.208C36.8803 55.208 37.2523 55.1 37.5723 54.884C37.8923 54.66 38.1443 54.372 38.3283 54.02C38.5123 53.668 38.6043 53.292 38.6043 52.892C38.6043 52.484 38.5163 52.1 38.3403 51.74C38.1723 51.38 37.9323 51.092 37.6203 50.876C37.3163 50.652 36.9603 50.54 36.5523 50.54C36.1043 50.54 35.7043 50.684 35.3523 50.972C35.0083 51.26 34.7443 51.604 34.5603 52.004V53.816C34.6163 54.08 34.7443 54.32 34.9443 54.536C35.1523 54.744 35.3923 54.908 35.6643 55.028C35.9443 55.148 36.2083 55.208 36.4563 55.208Z" fill="#F3F3F3"/>
</svg>
