<svg width="57" height="60" viewBox="0 0 57 60" fill="none" xmlns="http://www.w3.org/2000/svg">
<path d="M1.02 56V47.48H2.1V56H1.02ZM9.40519 56H8.34919V52.496C8.34919 51.832 8.24519 51.348 8.03719 51.044C7.83719 50.732 7.52919 50.576 7.11319 50.576C6.82519 50.576 6.53719 50.648 6.24919 50.792C5.96919 50.936 5.71719 51.132 5.49319 51.38C5.27719 51.62 5.12119 51.9 5.02519 52.22V56H3.96919V49.736H4.92919V51.08C5.17719 50.64 5.53319 50.288 5.99719 50.024C6.46919 49.76 6.98119 49.628 7.53319 49.628C8.02119 49.628 8.39719 49.744 8.66119 49.976C8.93319 50.2 9.12519 50.512 9.23719 50.912C9.34919 51.304 9.40519 51.752 9.40519 52.256V56ZM13.1953 56.12C12.6753 56.12 12.1873 56.036 11.7313 55.868C11.2753 55.692 10.8833 55.432 10.5553 55.088L10.9633 54.344C11.3233 54.68 11.6833 54.92 12.0433 55.064C12.4033 55.208 12.7713 55.28 13.1473 55.28C13.5793 55.28 13.9313 55.2 14.2033 55.04C14.4753 54.872 14.6113 54.628 14.6113 54.308C14.6113 54.076 14.5393 53.904 14.3953 53.792C14.2593 53.68 14.0633 53.588 13.8073 53.516C13.5513 53.436 13.2473 53.348 12.8953 53.252C12.2473 53.068 11.7513 52.852 11.4073 52.604C11.0713 52.348 10.9033 51.976 10.9033 51.488C10.9033 50.896 11.1273 50.44 11.5753 50.12C12.0313 49.792 12.6113 49.628 13.3153 49.628C14.2593 49.628 15.0033 49.912 15.5473 50.48L15.0673 51.212C14.5793 50.708 13.9753 50.456 13.2553 50.456C13.0393 50.456 12.8273 50.484 12.6193 50.54C12.4113 50.588 12.2393 50.68 12.1033 50.816C11.9673 50.944 11.8993 51.128 11.8993 51.368C11.8993 51.664 12.0193 51.876 12.2593 52.004C12.4993 52.132 12.8513 52.264 13.3153 52.4C13.7873 52.536 14.1953 52.672 14.5393 52.808C14.8913 52.944 15.1633 53.12 15.3553 53.336C15.5473 53.552 15.6433 53.852 15.6433 54.236C15.6433 54.828 15.4193 55.292 14.9713 55.628C14.5233 55.956 13.9313 56.12 13.1953 56.12ZM20.1467 55.688C20.0187 55.744 19.8147 55.824 19.5347 55.928C19.2627 56.032 18.9587 56.084 18.6227 56.084C18.2387 56.084 17.9067 55.98 17.6267 55.772C17.3467 55.556 17.2067 55.224 17.2067 54.776V50.564H16.3547V49.736H17.2067V47.648H18.2627V49.736H19.6667V50.564H18.2627V54.452C18.2787 54.676 18.3547 54.844 18.4907 54.956C18.6267 55.06 18.7867 55.112 18.9707 55.112C19.1787 55.112 19.3707 55.076 19.5467 55.004C19.7227 54.932 19.8387 54.88 19.8947 54.848L20.1467 55.688ZM20.6334 54.188C20.6334 53.788 20.7454 53.444 20.9694 53.156C21.2014 52.86 21.5174 52.632 21.9174 52.472C22.3174 52.312 22.7814 52.232 23.3094 52.232C23.5894 52.232 23.8854 52.256 24.1974 52.304C24.5094 52.344 24.7854 52.408 25.0254 52.496V52.04C25.0254 51.56 24.8814 51.184 24.5934 50.912C24.3054 50.632 23.8974 50.492 23.3694 50.492C23.0254 50.492 22.6934 50.556 22.3734 50.684C22.0614 50.804 21.7294 50.98 21.3774 51.212L20.9934 50.468C21.4014 50.188 21.8094 49.98 22.2174 49.844C22.6254 49.7 23.0494 49.628 23.4894 49.628C24.2894 49.628 24.9214 49.852 25.3854 50.3C25.8494 50.74 26.0814 51.356 26.0814 52.148V54.8C26.0814 55.048 26.1934 55.176 26.4174 55.184V56C26.3134 56.016 26.2214 56.028 26.1414 56.036C26.0694 56.044 26.0094 56.048 25.9614 56.048C25.7134 56.048 25.5254 55.98 25.3974 55.844C25.2774 55.708 25.2094 55.564 25.1934 55.412L25.1694 55.016C24.8974 55.368 24.5414 55.64 24.1014 55.832C23.6614 56.024 23.2254 56.12 22.7934 56.12C22.3774 56.12 22.0054 56.036 21.6774 55.868C21.3494 55.692 21.0934 55.46 20.9094 55.172C20.7254 54.876 20.6334 54.548 20.6334 54.188ZM24.7134 54.632C24.8094 54.52 24.8854 54.408 24.9414 54.296C24.9974 54.176 25.0254 54.076 25.0254 53.996V53.216C24.5134 53.016 23.9854 52.916 23.4414 52.916C22.9054 52.916 22.4694 53.024 22.1334 53.24C21.8054 53.448 21.6414 53.736 21.6414 54.104C21.6414 54.304 21.6934 54.5 21.7974 54.692C21.9094 54.876 22.0694 55.028 22.2774 55.148C22.4934 55.268 22.7574 55.328 23.0694 55.328C23.3974 55.328 23.7094 55.264 24.0054 55.136C24.3014 55 24.5374 54.832 24.7134 54.632ZM30.266 56.072C29.698 56.072 29.194 55.924 28.754 55.628C28.322 55.324 27.982 54.928 27.734 54.44C27.494 53.952 27.374 53.432 27.374 52.88C27.374 52.288 27.494 51.748 27.734 51.26C27.982 50.764 28.326 50.368 28.766 50.072C29.206 49.776 29.71 49.628 30.278 49.628C30.798 49.628 31.25 49.756 31.634 50.012C32.026 50.268 32.354 50.592 32.618 50.984V49.736H33.554V55.928C33.554 56.52 33.41 57.02 33.122 57.428C32.842 57.836 32.458 58.144 31.97 58.352C31.49 58.568 30.954 58.676 30.362 58.676C29.658 58.676 29.082 58.552 28.634 58.304C28.186 58.056 27.814 57.72 27.518 57.296L28.13 56.756C28.378 57.124 28.698 57.4 29.09 57.584C29.49 57.768 29.914 57.86 30.362 57.86C30.746 57.86 31.098 57.788 31.418 57.644C31.746 57.508 32.006 57.296 32.198 57.008C32.398 56.72 32.498 56.36 32.498 55.928V54.824C32.266 55.208 31.946 55.512 31.538 55.736C31.138 55.96 30.714 56.072 30.266 56.072ZM30.59 55.208C30.886 55.208 31.17 55.14 31.442 55.004C31.714 54.868 31.942 54.692 32.126 54.476C32.318 54.26 32.442 54.036 32.498 53.804V52.004C32.33 51.58 32.058 51.232 31.682 50.96C31.306 50.68 30.91 50.54 30.494 50.54C30.07 50.54 29.702 50.656 29.39 50.888C29.086 51.12 28.85 51.416 28.682 51.776C28.522 52.136 28.442 52.512 28.442 52.904C28.442 53.32 28.538 53.704 28.73 54.056C28.922 54.4 29.178 54.68 29.498 54.896C29.826 55.104 30.19 55.208 30.59 55.208ZM38.5703 50.66C38.0423 50.668 37.5743 50.804 37.1663 51.068C36.7663 51.324 36.4823 51.68 36.3143 52.136V56H35.2583V49.736H36.2423V51.188C36.4583 50.756 36.7423 50.408 37.0943 50.144C37.4543 49.872 37.8303 49.72 38.2223 49.688C38.3023 49.688 38.3703 49.688 38.4263 49.688C38.4823 49.688 38.5303 49.692 38.5703 49.7V50.66ZM39.1256 54.188C39.1256 53.788 39.2376 53.444 39.4616 53.156C39.6936 52.86 40.0096 52.632 40.4096 52.472C40.8096 52.312 41.2736 52.232 41.8016 52.232C42.0816 52.232 42.3776 52.256 42.6896 52.304C43.0016 52.344 43.2776 52.408 43.5176 52.496V52.04C43.5176 51.56 43.3736 51.184 43.0856 50.912C42.7976 50.632 42.3896 50.492 41.8616 50.492C41.5176 50.492 41.1856 50.556 40.8656 50.684C40.5536 50.804 40.2216 50.98 39.8696 51.212L39.4856 50.468C39.8936 50.188 40.3016 49.98 40.7096 49.844C41.1176 49.7 41.5416 49.628 41.9816 49.628C42.7816 49.628 43.4136 49.852 43.8776 50.3C44.3416 50.74 44.5736 51.356 44.5736 52.148V54.8C44.5736 55.048 44.6856 55.176 44.9096 55.184V56C44.8056 56.016 44.7136 56.028 44.6336 56.036C44.5616 56.044 44.5016 56.048 44.4536 56.048C44.2056 56.048 44.0176 55.98 43.8896 55.844C43.7696 55.708 43.7016 55.564 43.6856 55.412L43.6616 55.016C43.3896 55.368 43.0336 55.64 42.5936 55.832C42.1536 56.024 41.7176 56.12 41.2856 56.12C40.8696 56.12 40.4976 56.036 40.1696 55.868C39.8416 55.692 39.5856 55.46 39.4016 55.172C39.2176 54.876 39.1256 54.548 39.1256 54.188ZM43.2056 54.632C43.3016 54.52 43.3776 54.408 43.4336 54.296C43.4896 54.176 43.5176 54.076 43.5176 53.996V53.216C43.0056 53.016 42.4776 52.916 41.9336 52.916C41.3976 52.916 40.9616 53.024 40.6256 53.24C40.2976 53.448 40.1336 53.736 40.1336 54.104C40.1336 54.304 40.1856 54.5 40.2896 54.692C40.4016 54.876 40.5616 55.028 40.7696 55.148C40.9856 55.268 41.2496 55.328 41.5616 55.328C41.8896 55.328 42.2016 55.264 42.4976 55.136C42.7936 55 43.0296 54.832 43.2056 54.632ZM55.7062 56H54.6502V52.496C54.6502 51.84 54.5422 51.356 54.3262 51.044C54.1182 50.732 53.8062 50.576 53.3902 50.576C52.9662 50.576 52.5822 50.732 52.2382 51.044C51.8942 51.348 51.6502 51.744 51.5062 52.232V56H50.4502V52.496C50.4502 51.832 50.3462 51.348 50.1382 51.044C49.9302 50.732 49.6182 50.576 49.2022 50.576C48.7862 50.576 48.4022 50.728 48.0502 51.032C47.7062 51.328 47.4622 51.724 47.3182 52.22V56H46.2622V49.736H47.2222V51.08C47.4782 50.616 47.8102 50.26 48.2182 50.012C48.6262 49.756 49.0862 49.628 49.5982 49.628C50.1182 49.628 50.5342 49.772 50.8462 50.06C51.1582 50.34 51.3502 50.704 51.4222 51.152C51.9822 50.136 52.7782 49.628 53.8102 49.628C54.2902 49.628 54.6662 49.744 54.9382 49.976C55.2182 50.2 55.4142 50.512 55.5262 50.912C55.6462 51.304 55.7062 51.752 55.7062 52.256V56Z" fill="#F3F3F3"/>
<path d="M28.4948 29.5054C22.958 29.5054 18.4896 25.0369 18.4896 19.5C18.4896 13.9631 22.958 9.49462 28.4948 9.49462C34.0315 9.49462 38.5 13.9631 38.5 19.5C38.5 25.0369 34.0315 29.5054 28.4948 29.5054ZM28.4948 12.9972C24.9142 12.9972 21.9921 15.9193 21.9921 19.5C21.9921 23.0807 24.9142 26.0028 28.4948 26.0028C32.0754 26.0028 34.9974 23.0807 34.9974 19.5C34.9974 15.9193 32.0754 12.9972 28.4948 12.9972ZM38.9097 32.247C37.617 32.247 36.5731 31.203 36.5731 29.9103C36.5731 28.6175 37.617 27.5736 38.9097 27.5736C40.2025 27.5736 41.2464 28.6127 41.2464 29.9103C41.2468 30.2173 41.1866 30.5213 41.0693 30.805C40.952 31.0886 40.7799 31.3464 40.5629 31.5634C40.3458 31.7805 40.0881 31.9526 39.8044 32.0699C39.5207 32.1872 39.2167 32.2474 38.9097 32.247ZM47.9978 19.5C47.9978 22.1928 48.0222 24.8612 47.871 27.5492C47.7198 30.6713 47.0075 33.4422 44.7245 35.7252C42.4367 38.0131 39.6707 38.7205 36.5487 38.8717C33.8559 39.0229 31.1875 38.9985 28.4996 38.9985C25.8069 38.9985 23.1385 39.0229 20.4506 38.8717C17.3285 38.7205 14.5577 38.0083 12.2747 35.7252C9.98685 33.4373 9.27951 30.6713 9.12828 27.5492C8.97706 24.8564 9.00145 22.1879 9.00145 19.5C9.00145 16.8121 8.97706 14.1388 9.12828 11.4508C9.27951 8.3287 9.99173 5.55783 12.2747 3.27479C14.5626 0.98687 17.3285 0.279514 20.4506 0.128288C23.1434 -0.0229378 25.8117 0.00144958 28.4996 0.00144958C31.1924 0.00144958 33.8608 -0.0229378 36.5487 0.128288C39.6707 0.279514 42.4415 0.991745 44.7245 3.27479C47.0124 5.56271 47.7198 8.3287 47.871 11.4508C48.0271 14.1388 47.9978 16.8072 47.9978 19.5ZM43.705 7.99698C43.3489 7.10913 42.9196 6.44568 42.2318 5.76272C41.544 5.07488 40.8854 4.64559 39.9976 4.28947C37.4316 3.26991 31.3388 3.49919 28.4948 3.49919C25.6508 3.49919 19.553 3.26991 16.9871 4.2846C16.0992 4.64071 15.4358 5.07 14.7529 5.75784C14.065 6.44568 13.6357 7.10425 13.2796 7.9921C12.265 10.563 12.4942 16.656 12.4942 19.5C12.4942 22.344 12.265 28.4419 13.2796 31.0079C13.6357 31.8958 14.065 32.5592 14.7529 33.2422C15.4407 33.9251 16.0992 34.3593 16.9871 34.7154C19.553 35.7301 25.6508 35.5008 28.4948 35.5008C31.3388 35.5008 37.4365 35.7301 40.0024 34.7154C40.8903 34.3593 41.5537 33.93 42.2367 33.2422C42.9245 32.5543 43.3538 31.8958 43.7099 31.0079C44.7245 28.4419 44.4953 22.344 44.4953 19.5C44.4953 16.656 44.7245 10.563 43.705 7.99698Z" fill="#F3F3F3"/>
</svg>
