<svg width="48" height="60" viewBox="0 0 48 60" fill="none" xmlns="http://www.w3.org/2000/svg">
<path d="M1.02 56V47.48H2.1V55.04H6.852V56H1.02ZM7.85981 48.56V47.24H8.91581V48.56H7.85981ZM7.85981 56V49.736H8.91581V56H7.85981ZM16.0614 56H15.0054V52.496C15.0054 51.832 14.9014 51.348 14.6934 51.044C14.4934 50.732 14.1854 50.576 13.7694 50.576C13.4814 50.576 13.1934 50.648 12.9054 50.792C12.6254 50.936 12.3734 51.132 12.1494 51.38C11.9334 51.62 11.7774 51.9 11.6814 52.22V56H10.6254V49.736H11.5854V51.08C11.8334 50.64 12.1894 50.288 12.6534 50.024C13.1254 49.76 13.6374 49.628 14.1894 49.628C14.6774 49.628 15.0534 49.744 15.3174 49.976C15.5894 50.2 15.7814 50.512 15.8934 50.912C16.0054 51.304 16.0614 51.752 16.0614 52.256V56ZM22.1196 56L19.9476 52.952L18.7596 54.068V56H17.7036V47.24H18.7596V52.964L21.9996 49.748H23.1396L20.6436 52.34L23.2596 56H22.1196ZM26.6162 56.12C25.9922 56.12 25.4402 55.972 24.9602 55.676C24.4802 55.38 24.1042 54.984 23.8322 54.488C23.5602 53.992 23.4242 53.452 23.4242 52.868C23.4242 52.276 23.5602 51.736 23.8322 51.248C24.1042 50.76 24.4802 50.368 24.9602 50.072C25.4482 49.776 26.0042 49.628 26.6282 49.628C27.2602 49.628 27.8082 49.78 28.2722 50.084C28.7442 50.38 29.1082 50.772 29.3642 51.26C29.6282 51.74 29.7602 52.26 29.7602 52.82C29.7602 52.996 29.7522 53.132 29.7362 53.228H24.5402C24.5722 53.636 24.6842 54 24.8762 54.32C25.0762 54.632 25.3322 54.88 25.6442 55.064C25.9562 55.24 26.2922 55.328 26.6522 55.328C27.0362 55.328 27.3962 55.232 27.7322 55.04C28.0762 54.848 28.3122 54.596 28.4402 54.284L29.3522 54.536C29.1522 55 28.8042 55.38 28.3082 55.676C27.8122 55.972 27.2482 56.12 26.6162 56.12ZM24.5042 52.496H28.7762C28.7442 52.088 28.6282 51.728 28.4282 51.416C28.2282 51.104 27.9722 50.86 27.6602 50.684C27.3482 50.508 27.0042 50.42 26.6282 50.42C26.2602 50.42 25.9202 50.508 25.6082 50.684C25.2962 50.86 25.0402 51.104 24.8402 51.416C24.6482 51.728 24.5362 52.088 24.5042 52.496ZM30.526 52.88C30.526 52.288 30.646 51.748 30.886 51.26C31.134 50.764 31.47 50.368 31.894 50.072C32.326 49.776 32.818 49.628 33.37 49.628C33.874 49.628 34.326 49.76 34.726 50.024C35.126 50.288 35.438 50.608 35.662 50.984V47.24H36.718V54.8C36.718 55.048 36.83 55.176 37.054 55.184V56C36.854 56.032 36.698 56.048 36.586 56.048C36.378 56.048 36.194 55.976 36.034 55.832C35.882 55.688 35.806 55.528 35.806 55.352V54.824C35.558 55.224 35.226 55.54 34.81 55.772C34.394 56.004 33.962 56.12 33.514 56.12C32.938 56.12 32.422 55.972 31.966 55.676C31.518 55.372 31.166 54.976 30.91 54.488C30.654 53.992 30.526 53.456 30.526 52.88ZM35.662 53.804V52.004C35.566 51.732 35.41 51.488 35.194 51.272C34.978 51.048 34.734 50.872 34.462 50.744C34.198 50.608 33.934 50.54 33.67 50.54C33.262 50.54 32.902 50.652 32.59 50.876C32.286 51.1 32.046 51.392 31.87 51.752C31.702 52.112 31.618 52.492 31.618 52.892C31.618 53.308 31.71 53.692 31.894 54.044C32.086 54.396 32.346 54.68 32.674 54.896C33.002 55.104 33.366 55.208 33.766 55.208C34.022 55.208 34.286 55.148 34.558 55.028C34.83 54.9 35.07 54.728 35.278 54.512C35.486 54.296 35.614 54.06 35.662 53.804ZM38.6489 56V47.48H39.7289V56H38.6489ZM47.0341 56H45.9781V52.496C45.9781 51.832 45.8741 51.348 45.6661 51.044C45.4661 50.732 45.1581 50.576 44.7421 50.576C44.4541 50.576 44.1661 50.648 43.8781 50.792C43.5981 50.936 43.3461 51.132 43.1221 51.38C42.9061 51.62 42.7501 51.9 42.6541 52.22V56H41.5981V49.736H42.5581V51.08C42.8061 50.64 43.1621 50.288 43.6261 50.024C44.0981 49.76 44.6101 49.628 45.1621 49.628C45.6501 49.628 46.0261 49.744 46.2901 49.976C46.5621 50.2 46.7541 50.512 46.8661 50.912C46.9781 51.304 47.0341 51.752 47.0341 52.256V56Z" fill="#F3F3F3"/>
<path d="M42.44 0H6.56C5.69713 0 5 0.697125 5 1.56V37.44C5 38.3029 5.69713 39 6.56 39H42.44C43.3029 39 44 38.3029 44 37.44V1.56C44 0.697125 43.3029 0 42.44 0ZM16.5684 33.2329H10.7817V14.6201H16.5684V33.2329ZM13.6775 12.0754C13.0141 12.0754 12.3657 11.8787 11.8141 11.5101C11.2626 11.1416 10.8327 10.6178 10.5788 10.0049C10.325 9.39203 10.2585 8.71765 10.3879 8.06704C10.5174 7.41643 10.8368 6.8188 11.3059 6.34974C11.7749 5.88067 12.3726 5.56124 13.0232 5.43182C13.6738 5.30241 14.3482 5.36883 14.961 5.62268C15.5739 5.87654 16.0977 6.30643 16.4662 6.85799C16.8348 7.40955 17.0315 8.05802 17.0315 8.72137C17.0266 10.5739 15.5251 12.0754 13.6775 12.0754ZM38.2329 33.2329H32.4511V24.18C32.4511 22.0204 32.4121 19.2465 29.4433 19.2465C26.4354 19.2465 25.9722 21.5962 25.9722 24.024V33.2329H20.1954V14.6201H25.7431V17.1649H25.8211C26.5914 15.7024 28.478 14.157 31.2958 14.157C37.1555 14.157 38.2329 18.0131 38.2329 23.0246V33.2329Z" fill="#F3F3F3"/>
</svg>
