<svg width="39" height="60" viewBox="0 0 39 60" fill="none" xmlns="http://www.w3.org/2000/svg">
<path d="M7.164 48.44H4.224V56H3.144V48.44H0.204V47.48H7.164V48.44ZM15.0867 49.736H16.1067L13.4427 56H12.5187L11.3067 53.048L10.1067 56H9.18272L6.51872 49.736H7.52672L9.68672 54.956L10.6947 52.388L9.63872 49.748H10.5627L11.3067 51.74L12.0507 49.748H12.9747L11.9307 52.388L12.9387 54.956L15.0867 49.736ZM17.0942 48.56V47.24H18.1502V48.56H17.0942ZM17.0942 56V49.736H18.1502V56H17.0942ZM23.0998 55.688C22.9718 55.744 22.7678 55.824 22.4878 55.928C22.2158 56.032 21.9118 56.084 21.5758 56.084C21.1918 56.084 20.8598 55.98 20.5798 55.772C20.2998 55.556 20.1598 55.224 20.1598 54.776V50.564H19.3078V49.736H20.1598V47.648H21.2158V49.736H22.6198V50.564H21.2158V54.452C21.2318 54.676 21.3078 54.844 21.4438 54.956C21.5798 55.06 21.7398 55.112 21.9238 55.112C22.1318 55.112 22.3238 55.076 22.4998 55.004C22.6758 54.932 22.7918 54.88 22.8478 54.848L23.0998 55.688ZM27.3186 55.688C27.1906 55.744 26.9866 55.824 26.7066 55.928C26.4346 56.032 26.1306 56.084 25.7946 56.084C25.4106 56.084 25.0786 55.98 24.7986 55.772C24.5186 55.556 24.3786 55.224 24.3786 54.776V50.564H23.5266V49.736H24.3786V47.648H25.4346V49.736H26.8386V50.564H25.4346V54.452C25.4506 54.676 25.5266 54.844 25.6626 54.956C25.7986 55.06 25.9586 55.112 26.1426 55.112C26.3506 55.112 26.5426 55.076 26.7186 55.004C26.8946 54.932 27.0106 54.88 27.0666 54.848L27.3186 55.688ZM30.9873 56.12C30.3633 56.12 29.8113 55.972 29.3313 55.676C28.8513 55.38 28.4753 54.984 28.2033 54.488C27.9313 53.992 27.7953 53.452 27.7953 52.868C27.7953 52.276 27.9313 51.736 28.2033 51.248C28.4753 50.76 28.8513 50.368 29.3313 50.072C29.8193 49.776 30.3753 49.628 30.9993 49.628C31.6313 49.628 32.1793 49.78 32.6433 50.084C33.1153 50.38 33.4793 50.772 33.7353 51.26C33.9993 51.74 34.1313 52.26 34.1313 52.82C34.1313 52.996 34.1233 53.132 34.1073 53.228H28.9113C28.9433 53.636 29.0553 54 29.2473 54.32C29.4473 54.632 29.7033 54.88 30.0153 55.064C30.3273 55.24 30.6633 55.328 31.0233 55.328C31.4073 55.328 31.7673 55.232 32.1033 55.04C32.4473 54.848 32.6833 54.596 32.8113 54.284L33.7233 54.536C33.5233 55 33.1753 55.38 32.6793 55.676C32.1833 55.972 31.6193 56.12 30.9873 56.12ZM28.8753 52.496H33.1473C33.1153 52.088 32.9993 51.728 32.7993 51.416C32.5993 51.104 32.3433 50.86 32.0313 50.684C31.7193 50.508 31.3753 50.42 30.9993 50.42C30.6313 50.42 30.2913 50.508 29.9793 50.684C29.6673 50.86 29.4113 51.104 29.2113 51.416C29.0193 51.728 28.9073 52.088 28.8753 52.496ZM38.6171 50.66C38.0891 50.668 37.6211 50.804 37.2131 51.068C36.8131 51.324 36.5291 51.68 36.3611 52.136V56H35.3051V49.736H36.2891V51.188C36.5051 50.756 36.7891 50.408 37.1411 50.144C37.5011 49.872 37.8771 49.72 38.2691 49.688C38.3491 49.688 38.4171 49.688 38.4731 49.688C38.5291 49.688 38.5771 49.692 38.6171 49.7V50.66Z" fill="#F3F3F3"/>
<path d="M19.5 0C8.73147 0 0 8.73147 0 19.5C0 30.2685 8.73147 39 19.5 39C30.2685 39 39 30.2685 39 19.5C39 8.73147 30.2685 0 19.5 0ZM28.8713 14.699C28.8844 14.9036 28.8844 15.1169 28.8844 15.3258C28.8844 21.7155 24.0181 29.0759 15.1256 29.0759C12.3834 29.0759 9.84141 28.2794 7.69989 26.9083C8.09163 26.9518 8.46596 26.9692 8.86641 26.9692C11.1298 26.9692 13.2104 26.2031 14.8688 24.906C12.7446 24.8625 10.96 23.4696 10.3507 21.5545C11.095 21.6633 11.7653 21.6633 12.5314 21.4674C11.4376 21.2452 10.4546 20.6512 9.7492 19.7863C9.04381 18.9215 8.6596 17.839 8.66183 16.723V16.6621C9.30167 17.0233 10.0547 17.2453 10.8425 17.2758C10.1802 16.8344 9.63708 16.2364 9.26124 15.5348C8.8854 14.8333 8.68848 14.0498 8.68795 13.2539C8.68795 12.3529 8.92299 11.5302 9.3452 10.8164C10.5592 12.3108 12.074 13.5331 13.7913 14.4037C15.5086 15.2744 17.3899 15.7739 19.3128 15.8699C18.6295 12.5836 21.0844 9.92411 24.0355 9.92411C25.4284 9.92411 26.6819 10.5074 27.5655 11.4475C28.658 11.243 29.7027 10.8338 30.6342 10.2854C30.2729 11.404 29.5155 12.3485 28.51 12.9449C29.485 12.8404 30.4252 12.5705 31.2958 12.1919C30.6385 13.1581 29.8158 14.0156 28.8713 14.699Z" fill="#F3F3F3"/>
</svg>
